<svg xmlns="http://www.w3.org/2000/svg" width="64" height="64" fill="none"><path fill="#FAFAFC" fill-rule="evenodd" d="M39.588 20.627H8.902l.446 4.141.376 3.496.364 3.381 1.006 9.346 27.083-7.257zm-2.572 23.894L12.19 51.173l.904 8.396a2 2 0 0 0 1.988 1.786h20.122z" clip-rule="evenodd"/><path fill="#FF6A47" d="m38.177 33.734-27.083 7.257 1.096 10.182 24.826-6.652z"/><path stroke="#191911" stroke-linecap="round" stroke-linejoin="round" stroke-width="2" d="m11.094 40.991 27.083-7.257m-27.083 7.257 1.096 10.182m-1.096-10.182-1.006-9.346m28.089 2.09 1.41-13.108H8.903l.446 4.141m28.829 8.966-1.161 10.787M12.19 51.173l.904 8.396a2 2 0 0 0 1.988 1.786h20.122l1.812-16.834M12.19 51.173l24.826-6.652"/><path fill="#D9D9D9" stroke="#191911" stroke-width="2" d="M30.06 2.917a1.6 1.6 0 0 1 1.782 2.657L26.588 9.1a1 1 0 0 0-.443.83v9.277a1.6 1.6 0 0 1-3.2 0V8.57c0-.555.308-1.087.766-1.394z"/><rect width="36" height="4.8" x="6.245" y="16.006" fill="#F8E883" rx="2"/><path stroke="#191911" stroke-linecap="round" stroke-width="2" d="M32.08 16.006H8.244a2 2 0 0 0-2 2v.8a2 2 0 0 0 2 2h32a2 2 0 0 0 2-2v-.8a2 2 0 0 0-2-2h-2.922"/><path fill="#B98462" d="M17.755 56.955a2 2 0 0 1 2-2h36a2 2 0 0 1 2 2v.4a4 4 0 0 1-4 4h-32a4 4 0 0 1-4-4z"/><path stroke="#191911" stroke-linejoin="round" stroke-width="2" d="M37.755 54.955h-18a2 2 0 0 0-2 2v.4a4 4 0 0 0 4 4h32a4 4 0 0 0 4-4v-.4a2 2 0 0 0-2-2h-12.6"/><path fill="#B98462" d="M37.755 26.76c14.137 0 19.251 6.465 19.922 14.8.089 1.102-.818 2-1.922 2h-36c-1.105 0-2.01-.898-1.922-1.999.395-4.915 2.335-9.18 6.76-11.853a16 16 0 0 1 1.82-.944q1.047-.466 2.247-.83c2.5-.758 5.507-1.174 9.095-1.174"/><path stroke="#191911" stroke-linecap="round" stroke-width="2" d="M24.593 29.708c-4.425 2.673-6.365 6.938-6.76 11.853-.089 1.101.817 1.999 1.922 1.999h36c1.104 0 2.01-.898 1.922-2-.67-8.335-5.785-14.8-19.922-14.8-3.588 0-6.595.416-9.095 1.174"/><path fill="#E3E9EE" d="M24.945 37.903a1 1 0 1 1-2 0 1 1 0 0 1 2 0m12.81-4.211a1 1 0 1 1-2 0 1 1 0 0 1 2 0m2 6.211a1 1 0 1 1-2 0 1 1 0 0 1 2 0m6.351-3a1 1 0 1 1-2 0 1 1 0 0 1 2 0m-2-6.211a1 1 0 1 1-2 0 1 1 0 0 1 2 0m-12.042 9.211a1 1 0 1 1-2 0 1 1 0 0 1 2 0m-1-8.211a1 1 0 1 1-2 0 1 1 0 0 1 2 0m19.88 2.468a1 1 0 1 1-2 0 1 1 0 0 1 2 0m1 5.743a1 1 0 1 1-2 0 1 1 0 0 1 2 0"/><path fill="#FF6A47" d="M19.755 50.155h36v4.8h-36z"/><path stroke="#191911" stroke-linecap="round" stroke-width="2" d="M37.755 54.955h-18v-4.8h36v4.8H43.303"/><rect width="40" height="4.8" x="17.755" y="46.857" fill="#F8E883" stroke="#191911" stroke-width="2" rx="2"/><path fill="#A0E5A5" stroke="#191911" stroke-width="1.6" d="M55.912 44.17a4 4 0 0 1-7.159 3.48.24.24 0 0 0-.397 0 4 4 0 0 1-3.401 1.894 4 4 0 0 1-3.402-1.894.24.24 0 0 0-.397 0 4 4 0 0 1-3.401 1.894 4 4 0 0 1-3.402-1.894.24.24 0 0 0-.397 0 4 4 0 0 1-3.402 1.894 4 4 0 0 1-3.4-1.894.24.24 0 0 0-.398 0 4 4 0 0 1-7.159-3.48z"/></svg>