<svg xmlns="http://www.w3.org/2000/svg" width="64" height="64" fill="none"><path stroke="#191911" stroke-linecap="round" stroke-width="1.697" d="m39.439 18.252 1.544 3.366v5.955m-16.036-8.826-1.544 3.366v5.955"/><path fill="#75D2F5" stroke="#191911" stroke-width="2.545" d="M57.748 34.94c.937 0 1.702.762 1.644 1.697-.876 14.203-12.672 25.45-27.095 25.45S6.08 50.84 5.203 36.638c-.058-.935.707-1.697 1.644-1.697z"/><path stroke="#191911" stroke-linecap="round" stroke-width="2.545" d="M54.693 5.418v29.014"/><path stroke="#191911" stroke-width="1.697" d="M11.859 53.01c4.975-5.65 12.262-9.215 20.382-9.215 8.068 0 15.314 3.52 20.286 9.107"/><path fill="#191911" d="M48.77 34.074a.85.85 0 0 1 .908.736l.004.044.025.343a27.9 27.9 0 0 1-1.416 10.773c-2.635 7.81-8.38 13.695-15.388 16.736l-.335.143a.85.85 0 0 1-.655 0c-7.16-2.998-13.046-8.944-15.723-16.878a27.9 27.9 0 0 1-1.428-10.58l.021-.337.005-.044a.849.849 0 0 1 1.69.12l-.002.044-.02.316a26.2 26.2 0 0 0 1.342 9.938C20.27 52.76 25.66 58.284 32.24 61.144c6.58-2.86 11.97-8.384 14.443-15.716a26.2 26.2 0 0 0 1.331-10.12l-.023-.322-.002-.044a.85.85 0 0 1 .782-.868"/><circle cx="32.264" cy="12.201" r="3.558" fill="#FFB464" stroke="#191911" stroke-linejoin="round" stroke-width="1.697"/><path fill="#FFB464" d="M27.3 19.33c0-.468.38-.848.848-.848h8.185c.468 0 .848.38.848.849v14.984c0 .469-.38.848-.848.848h-8.185a.85.85 0 0 1-.848-.848z"/><path stroke="#191911" stroke-width="1.697" d="M37.181 35.163V19.331a.85.85 0 0 0-.848-.849h-8.185a.85.85 0 0 0-.848.849v15.832"/><path fill="#F8E883" stroke="#191911" stroke-width="2.545" d="M21.979 26.47c0-.937.76-1.697 1.696-1.697h17.131c.937 0 1.697.76 1.697 1.697v8.45H21.979z"/><path fill="#FAFAFC" stroke="#191911" stroke-width="1.357" d="M27.086 28.995c0-.937.76-1.697 1.697-1.697h6.915c.938 0 1.697.76 1.697 1.697v1.703c0 .937-.76 1.696-1.697 1.696h-6.915c-.937 0-1.697-.76-1.697-1.696z"/><path fill="#E592D0" stroke="#191911" stroke-width="1.6" d="m54.693 5.418 1.922.881a2.04 2.04 0 0 0 1.697 0l1.074-.492a2.04 2.04 0 0 1 1.697 0l1.922.88v5.822l-1.922-.881a2.04 2.04 0 0 0-1.697 0l-1.074.492a2.04 2.04 0 0 1-1.697 0l-1.922-.881zm-45.387 0-1.923.881a2.04 2.04 0 0 1-1.696 0l-1.074-.492a2.04 2.04 0 0 0-1.697 0l-1.922.88v5.822l1.922-.881a2.04 2.04 0 0 1 1.697 0l1.074.492a2.04 2.04 0 0 0 1.696 0l1.923-.881z"/><path stroke="#191911" stroke-linecap="round" stroke-width="2.545" d="M9.9 5.418v29.014"/></svg>