<svg xmlns="http://www.w3.org/2000/svg" width="64" height="64" fill="none"><circle cx="32" cy="32" r="16.427" fill="#F8E883"/><path stroke="#191911" stroke-linecap="round" stroke-width="2" d="M48.426 32a16.427 16.427 0 1 1-1.382-6.595"/><path fill="#191911" d="M12.822 46.267C17.226 52.04 24.177 55.769 32 55.769c7.649 0 14.464-3.564 18.879-9.12l1.556.93c-4.74 6.077-12.13 9.987-20.435 9.987-8.498 0-16.041-4.093-20.764-10.416zM39.107 6.754C49.956 9.844 57.9 19.827 57.9 31.666c0 1.32-.1 2.616-.29 3.883l-1.678-1.004q.17-1.417.172-2.879c0-10.848-7.167-20.022-17.024-23.046zM26.104 8.29C15.642 10.921 7.897 20.389 7.896 31.666q.002 1.223.12 2.416l-1.7.948a26 26 0 0 1-.216-3.364c0-12.286 8.554-22.574 20.032-25.232z"/><circle cx="32.023" cy="26.05" r="3.456" fill="#FFB464" stroke="#191911" stroke-linejoin="round" stroke-width="1.6"/><path fill="#FFB464" d="M27.2 32.834c0-.455.37-.824.824-.824h7.952c.455 0 .824.369.824.824v7.749a.824.824 0 0 1-.824.824h-7.952a.824.824 0 0 1-.824-.824z"/><path stroke="#191911" stroke-width="1.6" d="M36.8 41.407v-8.573a.824.824 0 0 0-.824-.824h-7.952a.824.824 0 0 0-.824.824v8.573"/><circle cx="31.8" cy="6.833" r="5.033" fill="#75D2F5" stroke="#191911" stroke-linejoin="round" stroke-width="2"/><circle cx="55.476" cy="39.949" r="5.033" fill="#E592D0" stroke="#191911" stroke-linejoin="round" stroke-width="2"/><circle cx="9.678" cy="41.785" r="5.033" fill="#9989F6" stroke="#191911" stroke-linejoin="round" stroke-width="2"/></svg>