<svg xmlns="http://www.w3.org/2000/svg" width="64" height="64" fill="none"><path stroke="#191911" stroke-linecap="round" stroke-width="2" d="m43.9 10.677 9.325 9.325m-12.673-5.978 9.325 9.326"/><rect width="8.271" height="15.691" x="49.512" y="8.541" fill="#B98462" stroke="#191911" stroke-width="3" rx="2" transform="rotate(45 49.512 8.541)"/><path fill="#B98462" stroke="#191911" stroke-width="3" d="M36.09 27.81c4.142 4.142 4.155 10.846.028 14.973q-.683.681-1.45 1.212a13.47 13.47 0 0 1-3.906 8.376c-5.291 5.292-13.886 5.276-19.197-.035-5.312-5.311-5.328-13.907-.036-19.198a13.47 13.47 0 0 1 8.377-3.906q.531-.766 1.212-1.45c4.127-4.126 10.83-4.114 14.972.028Z"/><path fill="#F8E883" stroke="#191911" stroke-width="2" d="M41.82 24.454 28.825 37.45l-.427.427.18.576a4.78 4.78 0 0 1-.955 4.554l-.233.25a4.776 4.776 0 0 1-6.576.177l-.177-.17a4.775 4.775 0 0 1-.162-6.574l.17-.178a4.78 4.78 0 0 1 4.802-1.188l.577.179.427-.427L39.446 22.08z"/><path stroke="#191911" stroke-linecap="round" stroke-width="2" d="m13.138 42.606 8.156 8.157"/><path fill="#75D2F5" d="M53.921 59.359a3.346 3.346 0 1 1-4.731-4.732 3.346 3.346 0 0 1 4.731 4.732"/><path stroke="#191911" stroke-linejoin="round" stroke-width="2" d="M53.921 54.628a3.345 3.345 0 1 0-4.731 4.73 3.345 3.345 0 0 0 4.731-4.73Zm0 0-.166-5.938m0 0-.191-6.822 6.958 3.367z"/><path fill="#E592D0" d="M8.26 19.77a3.583 3.583 0 1 1-5.066-5.066 3.583 3.583 0 0 1 5.067 5.067"/><path stroke="#191911" stroke-linejoin="round" stroke-width="2" d="M8.26 14.704a3.583 3.583 0 1 0-5.066 5.067 3.583 3.583 0 0 0 5.067-5.067Zm0 0V8.049m9.979 3.608-.224-7.534H8.26v3.926m0 0h6.655"/><circle cx="15.883" cy="14.293" r="3.583" fill="#E592D0" stroke="#191911" stroke-linejoin="round" stroke-width="2" transform="rotate(45 15.883 14.293)"/><path fill="#FAFAFC" stroke="#191911" d="M40.616 33.427a.5.5 0 0 1 .914-.08l.035.08.864 2.575a1.5 1.5 0 0 0 1.422 1.023h2.726a.5.5 0 0 1 .357.853l-.069.057-2.15 1.512a1.5 1.5 0 0 0-.594 1.585l.035.12.834 2.486a.501.501 0 0 1-.686.613l-.076-.045-2.274-1.6a1.5 1.5 0 0 0-1.628-.065l-.099.065-2.274 1.6a.5.5 0 0 1-.783-.483l.02-.085.835-2.487a1.5 1.5 0 0 0-.46-1.629l-.1-.075-2.15-1.512a.5.5 0 0 1 .288-.91h2.727a1.5 1.5 0 0 0 1.38-.91l.042-.113z"/></svg>