<svg xmlns="http://www.w3.org/2000/svg" width="64" height="64" fill="none"><path fill="#B98462" d="M12.836 18.571h5.227v19.838h-5.227z"/><path fill="#A8B9C5" d="M13.281 6.006h5.565v-1.92a1.92 1.92 0 0 0-1.92-1.921H15.2c-1.06 0-1.92.86-1.92 1.92zm-4.949 5.17H6.037a3.342 3.342 0 0 0 0 6.684H26.09a3.342 3.342 0 1 0 0-6.684z"/><path fill="#A8B9C5" d="M8.332 11.176h15.462V8.591a2.585 2.585 0 0 0-2.585-2.585H10.918A2.585 2.585 0 0 0 8.332 8.59zM26.09 39.12H6.036a3.342 3.342 0 1 0 0 6.684h2.295v2.585a2.585 2.585 0 0 0 2.585 2.585H21.21a2.585 2.585 0 0 0 2.585-2.585v-2.585h2.295a3.342 3.342 0 0 0 0-6.684m-7.244 11.855H13.28v1.92c0 1.06.86 1.92 1.92 1.92h1.724c1.06 0 1.92-.86 1.92-1.92z"/><path fill="#191911" d="M17.771 46.804a1 1 0 0 0 0-2zm3.012-2a1 1 0 1 0 0 2zm-7.89-26.747v-1h-1v1zm5.013 0h1v-1h-1zm0 20.888v1h1v-1zm-5.013 0h-1v1h1zM16.906 28.5a1 1 0 0 0 2 0zm2 5.222a1 1 0 1 0-2 0zM6.037 11.176v1H26.09v-2H6.037zM26.09 17.86v-1H6.037v2H26.09zm-20.052 0v-1a2.34 2.34 0 0 1-2.342-2.342h-2a4.34 4.34 0 0 0 4.342 4.342zm23.394-3.342h-1a2.34 2.34 0 0 1-2.342 2.342v2a4.34 4.34 0 0 0 4.342-4.342zm-3.342-3.342v1a2.34 2.34 0 0 1 2.342 2.342h2a4.34 4.34 0 0 0-4.342-4.342zm-20.052 0v-1a4.34 4.34 0 0 0-4.342 4.342h2a2.34 2.34 0 0 1 2.342-2.342zm4.88-5.17v1H21.21v-2H10.918zm12.877 5.17v-1H8.332v2h15.462zm-15.462 0h1V8.59h-2v2.585zm15.462-2.585h-1v2.585h2V8.59zM21.21 6.006v1c.876 0 1.585.71 1.585 1.585h2a3.585 3.585 0 0 0-3.585-3.585zm-10.291 0v-1A3.585 3.585 0 0 0 7.332 8.59h2c0-.875.71-1.585 1.585-1.585zM15.2 2.165v1h1.724v-2H15.2zm3.645 3.84v-1H13.28v2h5.565zm-5.565 0h1v-1.92h-2v1.92zm5.565-1.92h-1v1.92h2v-1.92zm-1.92-1.92v1a.92.92 0 0 1 .92.92h2a2.92 2.92 0 0 0-2.92-2.92zm-1.725 0v-1a2.92 2.92 0 0 0-2.92 2.92h2a.92.92 0 0 1 .92-.92zM26.09 39.12v-1H6.037v2H26.09zm-20.052 0v-1a4.34 4.34 0 0 0-4.342 4.342h2a2.34 2.34 0 0 1 2.342-2.342zm23.394 3.342h1a4.34 4.34 0 0 0-4.342-4.342v2a2.34 2.34 0 0 1 2.342 2.342zm-3.342 3.342v1a4.34 4.34 0 0 0 4.342-4.342h-2a2.34 2.34 0 0 1-2.342 2.342zm-20.052 0v-1a2.34 2.34 0 0 1-2.342-2.342h-2a4.34 4.34 0 0 0 4.342 4.342zm4.88 5.17v1H21.21v-2H10.918zm-2.585-5.17h-1v2.585h2v-2.584zm15.462 2.585h1v-2.584h-2v2.584zm-2.585 2.585v1a3.585 3.585 0 0 0 3.585-3.585h-2c0 .876-.71 1.585-1.585 1.585zm-10.291 0v-1c-.876 0-1.586-.71-1.586-1.585h-2a3.585 3.585 0 0 0 3.586 3.585zm4.283 3.841v1h1.724v-2h-1.724zm3.645-3.84v-1H13.28v2h5.565zm-5.565 0h-1v1.92h2v-1.92zm5.565 1.92h1v-1.92h-2v1.92zm-1.92 1.92v1a2.92 2.92 0 0 0 2.92-2.92h-2a.92.92 0 0 1-.92.92zm-1.725 0v-1a.92.92 0 0 1-.92-.92h-2a2.92 2.92 0 0 0 2.92 2.92zm2.57-9.01v-1h-9.44v2h9.44zm-11.734 0v1h11.734v-2H6.037zm17.757 0v-1h-3.011v2h3.011zm0 0v1h2.295v-2h-2.295zm-10.9-27.748v1h5.012v-2h-5.013zm5.012 20.888v-1h-5.013v2h5.013zm-5.013 0h1V18.057h-2v20.888zm5.013-20.888h-1v10.444h2V18.057zm0 15.666h-1v5.222h2v-5.222zm.94-27.717h1v-1.92h-2v1.92zm-5.565-1.92h-1v1.92h2v-1.92zm10.513 7.09h1V8.591h-2v2.585zm-2.585-5.17v-1h-2.363v2h2.363zm-7.928 0v-1h-2.363v2h2.363zM8.332 8.59h-1v2.585h2V8.591zm0 2.585v-1H6.037v2h2.295zm17.757 0v-1h-2.295v2h2.295zM6.037 45.804v1h2.295v-2H6.037zm2.295 0h-1v2.585h2v-2.585zm2.585 5.17v1h2.364v-2h-2.363zm7.929 0v1h2.363v-2h-2.363zm4.948-2.585h1v-2.585h-2v2.585zm-10.513 2.585h-1v1.92h2v-1.92zm5.565 1.92h1v-1.92h-2v1.92z"/><path fill="#FF6A47" d="M54.459 16.04a4 4 0 0 0 4 4h1.847a1 1 0 0 1 1 1v7.756l-16.709 4.477-16.708-4.477V21.04a1 1 0 0 1 1-1h1.847a4 4 0 0 0 4-4V5.79a1 1 0 0 1 1-1h1.033a1 1 0 0 1 1 1v2.713a6.828 6.828 0 0 0 13.657 0V5.79a1 1 0 0 1 1-1h1.033a1 1 0 0 1 1 1z"/><path fill="#FAFAFC" d="M57.306 47.39a4 4 0 0 0 4-4V28.796l-16.709 4.477-16.708-4.477V43.39a4 4 0 0 0 4 4z"/><path stroke="#191911" stroke-linecap="round" stroke-width="2" d="M61.306 28.796V21.04a1 1 0 0 0-1-1h-1.847a4 4 0 0 1-4-4V5.79a1 1 0 0 0-1-1h-1.033a1 1 0 0 0-1 1v2.713a6.828 6.828 0 0 1-13.657 0V5.79a1 1 0 0 0-1-1h-1.033a1 1 0 0 0-1 1v10.25a4 4 0 0 1-4 4h-1.847a1 1 0 0 0-1 1v7.756m33.417 0-16.709 4.477-16.708-4.477m33.417 0v4.197m-33.417-4.197V43.39a4 4 0 0 0 4 4h25.417a4 4 0 0 0 4-4v-3.1M43.297 22.611h1.6v5.4m0 0h-1m1 0h1"/><path fill="#D9D9D9" d="M33.498 44.133a2.4 2.4 0 0 1-.851 3.286l-3.275 1.928-3.275 1.927a2.4 2.4 0 0 1-3.285-.85l-.508-.862 10.686-6.29z"/><path fill="#D9D9D9" fill-rule="evenodd" d="M58.297 58.893v.949a1.995 1.995 0 0 1-1.995 1.993H20.995c-.92 0-1.72-.627-1.939-1.519l-.349-1.423zm-24.8-14.76a2.4 2.4 0 0 1-.85 3.286l-3.275 1.928-3.275 1.927a2.4 2.4 0 0 1-3.285-.85l-.508-.862 10.686-6.29z" clip-rule="evenodd"/><path fill="#FF6A47" d="m26.097 51.274 4.82 7.585h4.45l-5.995-9.512z"/><path fill="#FF6A47" d="m30.09 50.59 4.82 7.584h4.45l-5.996-9.512h-2.063z"/><path fill="#75D2F5" fill-rule="evenodd" d="M58.297 43.029a1.995 1.995 0 0 0-1.995-1.994h-1.235c-.524 0-.951.407-1.058.92a7.03 7.03 0 0 1-6.885 5.58 7.034 7.034 0 0 1-6.884-5.58c-.107-.513-.534-.92-1.058-.92h-1.92c-.354 0-.702.095-1.008.274l-15.61 9.135a5.95 5.95 0 0 0-1.937 8.449h39.59zm-25.65 4.39a2.4 2.4 0 0 0 .85-3.286l-.507-.861-10.686 6.29.508.862a2.4 2.4 0 0 0 3.285.85l4.82 7.585h4.45l-5.995-9.512z" clip-rule="evenodd"/><path fill="#191911" d="M56.302 41.035v-1zm1.995 18.807h1zm-1.995 1.993v1zm-35.307 0v1zm-1.939-1.519-.97.238zm1.588-9.872-.505-.863zm15.61-9.135.505.863zm1.009-.274v-1zm9.862 6.5v1zm6.884-5.58-.98-.205zm-13.769 0-.978.204zm-6.742 2.178.861-.507zm-10.686 6.29-.862.508zm-.508-.861-.507-.862a1 1 0 0 0-.354 1.37zm10.686-6.29.862-.508a1 1 0 0 0-1.369-.354zm-2.073 15.587-.844.537a1 1 0 0 0 .845.463zm4.45 0v1a1 1 0 0 0 .846-1.533zm-5.995-9.512-.507-.862zm9.014 10.012a1 1 0 0 0 1.732-1zm-4.87-8.435a1 1 0 0 0 1.732-1zm3.312 1.737a1 1 0 1 0-1.732 1zm19.474-11.626v1c.55 0 .995.446.995.994h2a2.995 2.995 0 0 0-2.995-2.994zm1.995 18.807h-1a.995.995 0 0 1-.995.993v2a2.995 2.995 0 0 0 2.995-2.993zm-1.995 1.993v-1H20.995v2h35.307zm-35.307 0v-1a.996.996 0 0 1-.968-.757l-.97.238-.972.238a2.995 2.995 0 0 0 2.91 2.281zm-1.939-1.519.971-.238-.349-1.423-.97.238-.972.238.35 1.423zm-.349-1.423.83-.557a4.95 4.95 0 0 1 1.612-7.029l-.505-.863-.505-.863a6.95 6.95 0 0 0-2.262 9.87zm1.937-8.449.505.863 15.61-9.135-.505-.863-.505-.863-15.61 9.135zm15.61-9.135.505.863a1 1 0 0 1 .504-.137v-2c-.532 0-1.055.142-1.514.41zm1.009-.274v1h1.92v-2h-1.92zm2.977.92-.978.204a8.034 8.034 0 0 0 7.862 6.377v-2a6.034 6.034 0 0 1-5.905-4.786zm6.884 5.58v1a8.03 8.03 0 0 0 7.863-6.376l-.978-.204-.98-.205a6.034 6.034 0 0 1-5.905 4.786zm7.943-6.5v1h1.235v-2h-1.235zm3.23 1.994h-1v15.864h2V43.029zm0 15.864h-1v.949h2v-.95zM54.01 41.955l.978.204a.2.2 0 0 1 .06-.11l.02-.014v-2c-1.075 0-1.85.82-2.037 1.715zm-14.827-.92v1q.003 0 .02.014a.2.2 0 0 1 .06.11l.978-.204.98-.205c-.188-.896-.963-1.715-2.038-1.715zm-5.684 3.098-.862.508a1.4 1.4 0 0 1-.496 1.916l.507.862.507.862a3.4 3.4 0 0 0 1.205-4.655zm-7.4 7.141-.508-.861a1.4 1.4 0 0 1-1.917-.497l-.861.508-.862.507a3.4 3.4 0 0 0 4.655 1.205zm-3.286-.85.861-.508-.507-.861-.862.507-.861.507.507.862zm-.508-.862.508.862 10.686-6.29-.508-.862-.507-.862-10.686 6.29zm10.686-6.29-.861.507.507.862.862-.508.861-.507-.507-.861zm-6.893 8.002-.844.537 4.82 7.585.845-.537.844-.536-4.82-7.585zm4.82 7.585v1h4.45v-2h-4.45zm1.73-11.44-.507-.862-3.275 1.928.507.862.507.862 3.275-1.928zm-3.275 1.928-.507-.862-3.275 1.928.507.861.508.862 3.274-1.927zm5.995 9.512.846-.533-5.995-9.512-.846.533-.846.533 5.995 9.512zm-2.72-11.44-.866.5 1.735 3.005.866-.5.866-.5-1.735-3.005zm6.605 11.44.866-.5-3.29-5.698-.866.5-.866.5 3.29 5.698zm-20.545.034v1H44.36v-2H18.707zm32.072 0v1h7.518v-2H50.78zm-6.42 0v1h6.42v-2h-6.42z"/></svg>