<svg xmlns="http://www.w3.org/2000/svg" width="64" height="64" fill="none"><path fill="#191911" fill-rule="evenodd" d="M23.922 1.747a5 5 0 0 1 3.55 1.479l8.796 8.867.086.089a5 5 0 0 1 1.365 3.432v30.417a5 5 0 0 1-5 5H8.149a5 5 0 0 1-5-5V6.747A5 5 0 0 1 8.02 1.75l.13-.002zM8.072 3.748a3 3 0 0 0-2.923 3V46.03a3 3 0 0 0 3 3h24.57a3 3 0 0 0 3-3V15.615q0-.303-.06-.595h-6.25l-.13-.001a5 5 0 0 1-4.87-4.999V3.787a3 3 0 0 0-.487-.04H8.149zm18.337 6.272a3 3 0 0 0 2.922 3h4.786l-7.708-7.686z" clip-rule="evenodd"/><path fill="#E3E9EE" d="M8.072 3.748a3 3 0 0 0-2.923 3V46.03a3 3 0 0 0 3 3h24.57a3 3 0 0 0 3-3V15.615q0-.303-.06-.595h-6.25l-.13-.001a5 5 0 0 1-4.87-4.999V3.787a3 3 0 0 0-.487-.04H8.149z"/><path fill="#A8B9C5" d="M26.409 10.02a3 3 0 0 0 2.922 3h4.786l-7.708-7.686z"/><path fill="#B98462" d="M13.29 31.647a3.67 3.67 0 0 1 3.671-3.672h41.063a3.67 3.67 0 0 1 3.672 3.672v25.999a3.67 3.67 0 0 1-3.672 3.672H16.961a3.67 3.67 0 0 1-3.672-3.672z"/><path stroke="#191911" stroke-linecap="round" stroke-linejoin="round" stroke-width="3" d="M13.29 57.49v.156a3.67 3.67 0 0 0 3.671 3.672h41.063a3.67 3.67 0 0 0 3.672-3.672v-26a3.67 3.67 0 0 0-3.672-3.671H16.961a3.67 3.67 0 0 0-3.672 3.672v21.198"/><path fill="#191911" fill-rule="evenodd" d="M45.493 17.55a3 3 0 0 1 3 3v5.6a3 3 0 0 1-3 3h-16a3 3 0 0 1-3-3v-5.6a3 3 0 0 1 3-3zm-16 2a1 1 0 0 0-1 1v5.6a1 1 0 0 0 1 1h1.8v-3.99l.002-.052a1 1 0 0 1 .998-.948h10.4l.052.001a1 1 0 0 1 .948.999v3.992h1.8a1 1 0 0 0 1-1v-5.6a1 1 0 0 0-1-1zm3.8 7.6h8.4v-2.99h-8.4z" clip-rule="evenodd"/><path fill="#B98462" d="M29.493 19.55a1 1 0 0 0-1 1v5.6a1 1 0 0 0 1 1h1.8v-3.99l.002-.052a1 1 0 0 1 .998-.948h10.4l.052.001a1 1 0 0 1 .948.999v3.992h1.8a1 1 0 0 0 1-1v-5.6a1 1 0 0 0-1-1z"/><path stroke="#191911" stroke-linecap="round" stroke-linejoin="round" stroke-width="3" d="M58.86 27.975h-41.9a3.67 3.67 0 0 0-3.672 3.672v4.677c0 1.693 1.151 3.162 2.805 3.523 4.72 1.028 14.419 2.937 21.399 2.937s16.678-1.909 21.398-2.937c1.654-.36 2.805-1.83 2.805-3.523v-5.512a2.837 2.837 0 0 0-2.837-2.837"/><path fill="#B98462" stroke="#191911" stroke-width="2" d="M33.493 39.892a1 1 0 0 1 1-1h6a1 1 0 0 1 1 1v6.617c0 .524-.203 1.03-.613 1.356-.731.582-2.027 1.427-3.387 1.427s-2.656-.845-3.387-1.427c-.41-.326-.613-.832-.613-1.356z"/><circle cx="37.493" cy="46.092" r="1.2" fill="#191911"/><path stroke="#E3E9EE" stroke-linecap="round" stroke-linejoin="round" stroke-width="2" d="M56.648 57.704V50.92m0-4.084v-2.48"/><path stroke="#191911" stroke-linecap="round" stroke-linejoin="round" stroke-width="2" d="M7.83 11.987h8.327m2.542 0h4.49M7.83 16.88h4.086m2.936 0h8.336M7.83 21.483h10.828m2.9 0h1.63"/></svg>