<svg xmlns="http://www.w3.org/2000/svg" width="64" height="64" fill="none"><path fill="#F8E883" stroke="#000" stroke-linejoin="round" stroke-width="3" d="M9.764 6.796c0-1.433 1.469-2.418 2.81-1.914C16.973 6.535 25.633 9.45 32 9.45s15.028-2.915 19.425-4.568c1.342-.504 2.811.481 2.811 1.914v33.149q.002.225-.097.426C53.099 42.452 43.873 60.227 32 60.227S10.901 42.452 9.861 40.371a.94.94 0 0 1-.097-.426z"/><path stroke="#000" stroke-linecap="round" stroke-linejoin="round" stroke-width="3" d="M26.882 23.29a6.189 6.189 0 0 0-12.378 0m34.993 0a6.189 6.189 0 0 0-12.378 0"/><path fill="#E592D0" stroke="#000" stroke-linecap="round" stroke-width="3" d="M32 34.814c-4.831 0-11.044-2.646-14.618-4.392-.885-.433-1.854.512-1.39 1.38 3.194 5.96 10.864 19.097 16.438 19.097 5.609 0 12.819-13.299 15.745-19.207.43-.867-.53-1.775-1.399-1.347-3.546 1.744-9.872 4.47-14.776 4.47Z"/></svg>