<svg xmlns="http://www.w3.org/2000/svg" width="64" height="64" fill="none"><path fill="#F8E883" d="M17.742 21.979c-.985-.37-2.063.352-2.063 1.405v24.163c0 .22.045.429.145.625 1.05 2.065 7.692 14.429 16.175 14.429s15.126-12.364 16.176-14.43c.1-.195.145-.404.145-.624V23.383c0-1.052-1.078-1.775-2.063-1.404-3.228 1.212-9.584 3.352-14.258 3.352s-11.03-2.14-14.257-3.352"/><path stroke="#191911" stroke-linecap="round" stroke-linejoin="round" stroke-width="2.202" d="M48.32 34.523v13.191q0 .166-.073.315c-.493.988-3.467 6.728-7.843 10.702m7.916-29.003v-6.344c0-1.053-1.078-1.776-2.063-1.405-3.228 1.212-9.584 3.352-14.258 3.352s-11.03-2.14-14.257-3.352c-.985-.37-2.063.352-2.063 1.405v24.33q0 .166.073.316c.23.46.99 1.937 2.176 3.785m3.607 4.819c2.8 3.161 6.423 5.967 10.464 5.967 3.111 0 5.975-1.663 8.405-3.87m0 0s3.36-5.94 2.221-8.554c-1.14-2.614-2.193-3.738-4.264-2.976-2.07.76-2.413 3.459-.804 4.614"/><path fill="#A0E5A5" d="m32.275 29.06-16.532-1.697V43.75l4.121-1.6 12.023 7.175z"/><path fill="#D9D9D9" d="M23.7 33.362a4.54 4.54 0 0 1 3.935 2.272 4.54 4.54 0 0 1-3.935 2.27 4.54 4.54 0 0 1-3.935-2.27 4.54 4.54 0 0 1 3.935-2.272"/><path fill="#FAFAFC" d="M40.299 33.362a4.54 4.54 0 0 1 3.935 2.272 4.54 4.54 0 0 1-3.935 2.27 4.54 4.54 0 0 1-3.935-2.27 4.54 4.54 0 0 1 3.935-2.272"/><path stroke="#191911" stroke-linecap="round" stroke-linejoin="round" stroke-width="2.202" d="M27.635 35.634a4.54 4.54 0 0 0-3.935-2.272 4.54 4.54 0 0 0-3.935 2.272m7.87 0c.386.668.607 1.444.607 2.27m-.607-2.27a4.54 4.54 0 0 1-3.935 2.27 4.54 4.54 0 0 1-3.935-2.27m7.87 0a4.5 4.5 0 0 0 .607-2.272m-9.085 4.543c0-.828.221-1.603.608-2.271m0 0a4.5 4.5 0 0 1-.608-2.272m25.077 2.272a4.54 4.54 0 0 0-3.935-2.272 4.54 4.54 0 0 0-3.935 2.272m7.87 0c.386.668.607 1.444.607 2.27m-.607-2.27a4.54 4.54 0 0 1-3.935 2.27 4.54 4.54 0 0 1-3.935-2.27m7.87 0a4.5 4.5 0 0 0 .607-2.272m-9.085 4.543c0-.828.221-1.603.608-2.271m0 0a4.5 4.5 0 0 1-.608-2.272"/><path fill="#E592D0" stroke="#191911" stroke-width="1.468" d="M16.413 16.546c0-2.278 1.162-4.363 3.112-5.402l.192-.098c1.716-.833 3.855-1.78 6.042-2.516 2.197-.74 4.394-1.25 6.241-1.25s4.043.51 6.24 1.25c1.914.645 3.791 1.45 5.38 2.199l.663.317c2.066 1.003 3.303 3.149 3.303 5.5v8.549q-.333-.068-.773-.153c-1.032-.197-2.477-.46-4.123-.722-3.283-.524-7.41-1.055-10.69-1.055s-7.408.53-10.69 1.055c-1.647.263-3.09.525-4.123.722l-.774.153z"/><path fill="#E592D0" d="M11.258 23.511c0-2.168 2.02-3.785 4.147-3.365 4.387.865 11.38 2.057 16.595 2.057s12.208-1.192 16.595-2.057c2.127-.42 4.147 1.197 4.147 3.365a3.29 3.29 0 0 1-2.61 3.238c-4.116.853-12.254 2.369-18.132 2.369s-14.016-1.516-18.133-2.37c-1.532-.317-2.61-1.673-2.61-3.237"/><path stroke="#191911" stroke-width="2.202" d="M32 29.118c5.877 0 14.016-1.516 18.133-2.37 1.531-.317 2.609-1.673 2.609-3.237 0-2.168-2.02-3.785-4.147-3.365-4.387.865-11.38 2.057-16.595 2.057s-12.208-1.192-16.595-2.057c-2.128-.42-4.147 1.197-4.147 3.365 0 1.564 1.077 2.92 2.609 3.238 4.117.853 12.255 2.369 18.133 2.369Zm0 0V47.88c0 1.312-.717 2.145-1.845 1.475-1.091-.65-2.811-1.938-5.512-4.437-6.654-6.157-8.839.795-8.839.795"/><path fill="#9989F6" stroke="#191911" stroke-width="1.468" d="M39.803 9.39c-3.15 5.455-6.815 9.235-8.188 8.442s.067-5.857 3.216-11.312 4.576-4.179 5.44-3.68 2.681 1.096-.468 6.55Z"/><path fill="#9989F6" stroke="#191911" stroke-width="1.468" d="M29.168 6.52c3.15 5.456 4.59 10.52 3.216 11.313-1.373.792-5.038-2.987-8.188-8.442-3.149-5.454-1.331-6.052-.467-6.55.863-.5 2.29-1.775 5.44 3.68Z"/><path fill="#9989F6" stroke="#191911" stroke-width="1.468" d="M34.87 7.312c0 6.299-1.285 11.405-2.87 11.405s-2.871-5.106-2.871-11.405 1.873-5.907 2.87-5.907 2.87-.391 2.87 5.907Z"/><path fill="#75D2F5" stroke="#191911" stroke-width="1.468" d="M30.35 17.216c.737-1.264 2.563-1.264 3.299 0l.3.514c.27.463.721.791 1.245.905l.582.126c1.43.31 1.994 2.046 1.02 3.137l-.398.444c-.357.4-.53.93-.475 1.463l.06.593c.147 1.455-1.33 2.528-2.668 1.939l-.546-.24a1.9 1.9 0 0 0-1.539 0l-.545.24c-1.338.59-2.815-.484-2.668-1.939l.06-.593a1.9 1.9 0 0 0-.476-1.463l-.396-.444c-.975-1.091-.41-2.828 1.019-3.137l.582-.126a1.9 1.9 0 0 0 1.245-.905z"/><circle cx="32" cy="21.723" r="1.762" fill="#F8E883" stroke="#191911" stroke-width="1.468"/></svg>