<svg xmlns="http://www.w3.org/2000/svg" width="64" height="64" fill="none"><path fill="#B98462" d="M2.985 52.107c0-5.685 4.597-10.294 10.266-10.294h45.74l.105.003c1.069.054 1.92.94 1.92 2.026s-.851 1.972-1.92 2.026h-45.74c-3.435 0-6.324 2.795-6.324 6.239s2.785 6.236 6.22 6.236h45.74l.104.002a2.03 2.03 0 0 1 1.92 2.026 2.026 2.026 0 0 1-1.92 2.026l-.104.003h-45.74c-5.67 0-10.267-4.608-10.267-10.293"/><path fill="#FF6A47" d="M44.784 45.868v7.474c0 .176.214.26.334.134l3.061-3.236a.194.194 0 0 1 .283.002l2.97 3.222c.119.13.335.045.335-.131v-7.465z"/><path fill="#FAFAFC" d="M13.356 45.868c-3.435 0-6.324 2.795-6.324 6.239s2.785 6.236 6.22 6.236h42.616s-.045-2.327-.045-6.236c0-3.91.045-6.239.045-6.239h-4.1v7.465c0 .176-.217.26-.337.131l-2.969-3.222a.194.194 0 0 0-.283-.002l-3.06 3.236a.194.194 0 0 1-.335-.133v-7.475z"/><path fill="#FF6A47" d="M44.784 45.868v7.474c0 .176.214.26.334.134l3.061-3.236a.194.194 0 0 1 .283.002l2.97 3.222c.119.13.335.045.335-.131v-7.465z"/><path stroke="#191911" stroke-linecap="round" stroke-width="1.549" d="M57.43 45.868h1.666a2.026 2.026 0 0 0 1.92-2.026 2.027 2.027 0 0 0-1.92-2.026l-.104-.003h-45.74c-5.67 0-10.267 4.609-10.267 10.294S7.582 62.4 13.251 62.4h45.74l.105-.003a2.026 2.026 0 0 0 1.92-2.026 2.03 2.03 0 0 0-1.92-2.026l-.104-.002H57.43m0-12.475s-1.607 2.33-1.607 6.239 1.607 6.236 1.607 6.236m0-12.475h-5.663m5.663 12.475H28.066m16.718-12.475H13.356c-3.435 0-6.324 2.795-6.324 6.239s2.785 6.236 6.22 6.236l10.228.002m21.304-12.477v7.474c0 .176.214.26.334.134l3.061-3.236a.194.194 0 0 1 .283.002l2.97 3.222c.119.13.335.045.335-.131v-7.465m-6.983 0h6.983"/><path fill="#B98462" d="M61.015 31.921c0-4.701-4.597-8.513-10.266-8.513H5.009l-.105.002c-1.069.045-1.92.778-1.92 1.676s.851 1.63 1.92 1.676h45.741c3.434 0 6.323 2.31 6.323 5.16 0 2.848-2.785 5.156-6.22 5.156H5.009l-.104.003c-1.069.045-1.92.778-1.92 1.675 0 .898.851 1.63 1.92 1.676l.104.002h45.74c5.67 0 10.267-3.811 10.267-8.513"/><path fill="#FF6A47" d="M19.216 26.762v6.157a.194.194 0 0 1-.321.146l-3.088-2.7a.194.194 0 0 0-.256.002l-2.995 2.689a.194.194 0 0 1-.323-.145v-6.15z"/><path fill="#FAFAFC" d="M50.645 26.762c3.434 0 6.323 2.31 6.323 5.16 0 2.848-2.785 5.156-6.22 5.156H8.133s.045-1.924.045-5.157-.045-5.16-.045-5.16h4.1v6.15c0 .168.2.256.324.145l2.995-2.689a.194.194 0 0 1 .256-.002l3.088 2.7c.125.11.32.02.32-.146v-6.157z"/><path stroke="#000" stroke-linecap="round" stroke-width="2" d="M23.657 31.922h17.368m11.79 0h-6.373"/><path fill="#FF6A47" d="M19.216 26.762v6.157a.194.194 0 0 1-.321.146l-3.088-2.7a.194.194 0 0 0-.256.002l-2.995 2.689a.194.194 0 0 1-.323-.145v-6.15z"/><path stroke="#191911" stroke-linecap="round" stroke-width="1.549" d="M6.57 26.762H4.904c-1.069-.045-1.92-.778-1.92-1.676s.851-1.63 1.92-1.676l.104-.002h45.74c5.67 0 10.267 3.812 10.267 8.513s-4.597 8.513-10.266 8.513H5.009l-.105-.002c-1.069-.045-1.92-.778-1.92-1.676s.851-1.63 1.92-1.675l.104-.003H6.57m0-10.316s1.607 1.926 1.607 5.16c0 3.232-1.607 5.156-1.607 5.156m0-10.316h5.663M6.57 37.078h29.364M19.216 26.762h31.429c3.434 0 6.323 2.31 6.323 5.16 0 2.848-2.785 5.156-6.22 5.156l-10.228.003M19.216 26.76v6.158a.194.194 0 0 1-.321.146l-3.088-2.7a.194.194 0 0 0-.256.002l-2.995 2.689a.194.194 0 0 1-.323-.145v-6.15m6.983 0h-6.983"/><path fill="#B98462" d="M2.985 12.922c0-5.79 4.597-10.485 10.266-10.485h45.74l.105.002c1.069.056 1.92.958 1.92 2.064s-.851 2.009-1.92 2.064h-45.74c-3.435 0-6.324 2.847-6.324 6.355s2.785 6.353 6.22 6.353h45.74l.104.003c1.069.055 1.92.958 1.92 2.064 0 1.105-.851 2.008-1.92 2.063l-.104.003h-45.74c-5.67 0-10.267-4.695-10.267-10.486"/><path fill="#FF6A47" d="M44.784 6.567v7.617c0 .176.216.26.336.131l3.058-3.293a.194.194 0 0 1 .285.002l2.967 3.28a.194.194 0 0 0 .337-.13V6.567z"/><path fill="#FAFAFC" d="M13.356 6.567c-3.435 0-6.324 2.847-6.324 6.355s2.785 6.353 6.22 6.353h42.616s-.045-2.37-.045-6.353.045-6.355.045-6.355h-4.1v7.607a.194.194 0 0 1-.338.13l-2.967-3.28a.194.194 0 0 0-.285-.002l-3.058 3.293a.194.194 0 0 1-.336-.131V6.567z"/><path fill="#FF6A47" d="M44.784 6.567v7.617c0 .176.216.26.336.131l3.058-3.293a.194.194 0 0 1 .285.002l2.967 3.28a.194.194 0 0 0 .337-.13V6.567z"/><path stroke="#191911" stroke-linecap="round" stroke-width="1.549" d="M57.43 6.567h1.666c1.069-.055 1.92-.958 1.92-2.064s-.851-2.008-1.92-2.064l-.104-.002h-45.74c-5.67 0-10.267 4.694-10.267 10.485s4.597 10.486 10.266 10.486h45.74l.105-.003c1.069-.055 1.92-.958 1.92-2.063s-.851-2.009-1.92-2.064l-.104-.003H57.43m0-12.708s-1.607 2.373-1.607 6.355 1.607 6.353 1.607 6.353m0-12.708h-5.663m5.663 12.708H28.066M44.784 6.567H13.356c-3.435 0-6.324 2.847-6.324 6.355s2.785 6.353 6.22 6.353l10.228.003m21.304-12.71v7.616c0 .176.216.26.336.131l3.058-3.293a.194.194 0 0 1 .285.002l2.967 3.28a.194.194 0 0 0 .337-.13V6.567m-6.983 0h6.983"/><path stroke="#000" stroke-linecap="round" stroke-width="2" d="M12.981 10.743h27.565m-27.565 4.462h27.565M12.981 49.876h27.565m-27.565 4.461h27.565"/></svg>