<svg xmlns="http://www.w3.org/2000/svg" width="64" height="64" fill="none"><path fill="#75D2F5" d="M60.318 21.585a1.936 1.936 0 1 1-3.873 0 1.936 1.936 0 0 1 3.873 0"/><path stroke="#191911" stroke-linejoin="round" stroke-width=".968" d="M58.382 19.649a1.936 1.936 0 1 0 0 3.873 1.936 1.936 0 0 0 0-3.873Zm0 0v-6.702"/><path fill="#3C81DC" d="M60.271 12.948 32 1.522 24.931 4.38 3.727 12.948l28.272 11.425z"/><path stroke="#000" stroke-linecap="round" stroke-width="1.936" d="M17.162 7.235 4.358 12.409a.58.58 0 0 0 0 1.077l26.94 10.887 26.94-10.887a.58.58 0 0 0 0-1.077L31.66 1.669a.97.97 0 0 0-.726 0L24.23 4.38"/><path fill="#3C81DC" stroke="#000" stroke-linecap="round" stroke-width="1.936" d="M31.742 13.916c4.898-.01 11.62.606 15.545 1.018l1.498.16a.944.944 0 0 1 .836.948v9.269a.97.97 0 0 1-.969.967H15.345a.97.97 0 0 1-.969-.967v-9.27c0-.463.319-.844.749-.934l.088-.013c3.184-.355 10.162-1.07 15.488-1.167z"/><path fill="#F8E883" stroke="#191911" stroke-width=".968" d="M57.665 24.1a.775.775 0 0 1 1.432 0l1.697 4.12a.387.387 0 0 1-.358.534h-4.11a.387.387 0 0 1-.358-.535z"/><path fill="#B98462" d="M2.984 53.965c0-4.701 4.597-8.513 10.266-8.513h45.74l.105.002c1.069.045 1.92.778 1.92 1.676s-.851 1.63-1.92 1.676h-45.74c-3.435 0-6.324 2.31-6.324 5.16 0 2.847 2.785 5.157 6.22 5.157h45.74l.104.002c1.069.044 1.92.778 1.92 1.675 0 .898-.851 1.63-1.92 1.676l-.104.002H13.25c-5.67 0-10.267-3.811-10.267-8.513"/><path fill="#FF6A47" d="M44.783 48.806v6.157c0 .166.196.255.321.146l3.087-2.7a.194.194 0 0 1 .257.002l2.995 2.688a.194.194 0 0 0 .323-.144v-6.15z"/><path fill="#FAFAFC" d="M13.355 48.806c-3.435 0-6.324 2.31-6.324 5.16 0 2.847 2.785 5.157 6.22 5.157h42.616s-1.607-1.925-1.607-5.158 1.607-5.16 1.607-5.16h-4.1v6.15a.194.194 0 0 1-.324.145l-2.995-2.689a.194.194 0 0 0-.257-.002l-3.087 2.7a.194.194 0 0 1-.32-.146v-6.157z"/><path stroke="#000" stroke-linecap="round" stroke-width="1.549" d="M55.867 48.806h3.228c1.069-.045 1.92-.778 1.92-1.676s-.851-1.63-1.92-1.676l-.104-.002H13.25c-5.67 0-10.267 3.812-10.267 8.513s4.597 8.513 10.266 8.513h45.74l.105-.002c1.069-.045 1.92-.778 1.92-1.676s-.851-1.63-1.92-1.675l-.104-.002h-3.124m0-10.317s-1.607 1.926-1.607 5.16c0 3.232 1.607 5.157 1.607 5.157m0-10.317h-4.1m4.1 10.317H13.25c-3.434 0-6.219-2.31-6.219-5.158s2.889-5.16 6.324-5.16h31.428m0 0v6.158c0 .166.196.255.321.146l3.087-2.7a.194.194 0 0 1 .257.002l2.995 2.688a.194.194 0 0 0 .323-.144v-6.15m-6.983 0h6.983"/><path fill="#B98462" d="M8.111 35.76c0-4.701 3.727-8.513 8.324-8.513h37.087l.085.002c.867.045 1.556.778 1.556 1.676s-.69 1.63-1.556 1.676H20.23h7.63-11.34c-2.785 0-5.128 2.31-5.128 5.159s2.258 5.157 5.043 5.157h37.087l.085.002c.867.046 1.556.779 1.556 1.676 0 .898-.69 1.63-1.556 1.676l-.085.002H16.435c-4.597 0-8.324-3.811-8.324-8.513"/><path fill="#FF6A47" d="M27.86 30.6h-7.63v6.236c0 .152.166.245.295.165l3.47-2.157a.19.19 0 0 1 .207.002l3.36 2.148a.194.194 0 0 0 .298-.163z"/><path fill="#FAFAFC" d="M16.52 30.6c-2.785 0-5.128 2.312-5.128 5.16s2.258 5.157 5.043 5.157H50.99s-1.303-1.924-1.303-5.157 1.303-5.16 1.303-5.16H27.86v6.23c0 .154-.17.246-.298.164l-3.36-2.148a.19.19 0 0 0-.206-.002l-3.471 2.157a.194.194 0 0 1-.296-.165v-6.235z"/><path stroke="#000" stroke-linecap="round" stroke-width="1.549" d="M16.52 30.6c-2.785 0-5.128 2.312-5.128 5.16s2.258 5.157 5.043 5.157H50.99M16.52 30.601h11.34m-11.34 0h3.71m30.76 0h2.617c.867-.045 1.556-.778 1.556-1.676s-.69-1.63-1.556-1.676l-.085-.002H16.435c-4.597 0-8.324 3.811-8.324 8.513s3.727 8.513 8.324 8.513h37.087l.085-.002c.866-.045 1.556-.778 1.556-1.676s-.69-1.63-1.556-1.675l-.085-.003H50.99m0-10.316s-1.303 1.926-1.303 5.159 1.303 5.157 1.303 5.157m0-10.316H20.23m30.76 0H27.86m0 0v6.23c0 .153-.17.245-.298.163l-3.36-2.148a.19.19 0 0 0-.206-.002l-3.471 2.157a.194.194 0 0 1-.296-.165v-6.235m7.63 0h-7.63"/></svg>