<svg xmlns="http://www.w3.org/2000/svg" width="64" height="66" fill="none"><path fill="#9989F6" d="M58.892 48.544V17.457l-9.72-5.612-17.202-9.93L5.05 17.456v31.087l26.92 15.544z"/><path stroke="#191911" stroke-linecap="round" stroke-linejoin="round" stroke-width="3" d="M40.066 6.588 33.17 2.607a2.4 2.4 0 0 0-2.4 0L6.25 16.764a2.4 2.4 0 0 0-1.2 2.079v28.315a2.4 2.4 0 0 0 1.2 2.078l24.52 14.158a2.4 2.4 0 0 0 2.4 0l24.522-14.158a2.4 2.4 0 0 0 1.2-2.078V18.843a2.4 2.4 0 0 0-1.2-2.079l-8.52-4.919"/><path stroke="#E3E9EE" stroke-linecap="round" stroke-linejoin="round" stroke-width="2" d="M11.756 43.808h28.367m5.217 0h7.663"/><path fill="#191911" d="M13.89 40.027q-.49 0-.79-.221-.285-.222-.285-.522V29.208q0-.3.284-.522.3-.22.791-.221h2.8q1.09 0 1.977.364.885.364 1.392 1.186.522.822.522 2.183v4.096q0 1.36-.522 2.183a2.9 2.9 0 0 1-1.392 1.187q-.886.363-1.977.363zm1.392-2.15h1.408q.664 0 1.044-.38.38-.396.38-1.203v-4.096q0-.807-.38-1.187-.38-.395-1.044-.395h-1.408zm8.728 2.15q-.394 0-.743-.19a.62.62 0 0 1-.332-.569V29.224q0-.38.332-.57.348-.19.744-.19h5.63q.396 0 .57.349.174.332.174.712 0 .442-.19.775a.61.61 0 0 1-.553.316h-4.24v2.673h2.373q.364 0 .554.3.19.285.19.665 0 .316-.174.633-.174.3-.57.3h-2.372v2.69h4.239q.363 0 .553.331.19.316.19.76 0 .38-.174.727-.174.333-.57.332zm9.476 0q-.459 0-.854-.19-.38-.19-.38-.569v-9.57q0-.68.38-.948.396-.285.854-.285.443 0 .744.079.316.063.585.332.27.253.585.823l1.63 2.847 1.628-2.847q.333-.57.586-.823.269-.27.57-.332.315-.08.758-.08.475 0 .854.286.38.268.38.949v9.57q0 .378-.395.569-.38.19-.839.19t-.854-.19q-.38-.19-.38-.57v-5.931L37.82 35.93a.96.96 0 0 1-.38.363 1.1 1.1 0 0 1-.442.095q-.206 0-.427-.095-.206-.094-.348-.363l-1.503-2.753v6.09q0 .38-.395.57-.38.19-.839.19m14.567.095q-1.092 0-1.977-.364a2.98 2.98 0 0 1-1.392-1.186q-.507-.822-.507-2.183v-4.191q0-1.36.507-2.183a3 3 0 0 1 1.392-1.186q.886-.364 1.977-.364 1.09 0 1.977.364.885.364 1.392 1.186.522.822.522 2.183v4.191q0 1.36-.522 2.183a2.9 2.9 0 0 1-1.392 1.186q-.886.364-1.977.364m0-2.15q.664-.001 1.044-.38.38-.38.38-1.203v-4.191q0-.824-.38-1.202-.381-.38-1.044-.38-.665 0-1.044.38-.364.379-.364 1.202v4.191q0 .824.364 1.202.379.38 1.044.38"/><path stroke="#191911" stroke-linejoin="round" stroke-width=".2" d="M13.89 40.027q-.49 0-.79-.221-.285-.222-.285-.522V29.208q0-.3.284-.522.3-.22.791-.221h2.8q1.09 0 1.977.364.885.364 1.392 1.186.522.822.522 2.183v4.096q0 1.36-.522 2.183a2.9 2.9 0 0 1-1.392 1.187q-.886.363-1.977.363zm1.392-2.15h1.408q.664 0 1.044-.38.38-.396.38-1.203v-4.096q0-.807-.38-1.187-.38-.395-1.044-.395h-1.408zm8.728 2.15q-.394 0-.743-.19a.62.62 0 0 1-.332-.569V29.224q0-.38.332-.57.348-.19.744-.19h5.63q.396 0 .57.349.174.332.174.712 0 .442-.19.775a.61.61 0 0 1-.553.316h-4.24v2.673h2.373q.364 0 .554.3.19.285.19.665 0 .316-.174.633-.174.3-.57.3h-2.372v2.69h4.239q.363 0 .553.331.19.316.19.76 0 .38-.174.727-.174.333-.57.332zm9.476 0q-.459 0-.854-.19-.38-.19-.38-.569v-9.57q0-.68.38-.948.396-.285.854-.285.443 0 .744.079.316.063.585.332.27.253.585.823l1.63 2.847 1.628-2.847q.333-.57.586-.823.269-.27.57-.332.315-.08.758-.08.475 0 .854.286.38.268.38.949v9.57q0 .378-.395.569-.38.19-.839.19t-.854-.19q-.38-.19-.38-.57v-5.931L37.82 35.93a.96.96 0 0 1-.38.363 1.1 1.1 0 0 1-.442.095q-.206 0-.427-.095-.206-.094-.348-.363l-1.503-2.753v6.09q0 .38-.395.57-.38.19-.839.19Zm14.567.095q-1.092 0-1.977-.364a2.98 2.98 0 0 1-1.392-1.186q-.507-.822-.507-2.183v-4.191q0-1.36.507-2.183a3 3 0 0 1 1.392-1.186q.886-.364 1.977-.364 1.09 0 1.977.364.885.364 1.392 1.186.522.822.522 2.183v4.191q0 1.36-.522 2.183a2.9 2.9 0 0 1-1.392 1.186q-.886.364-1.977.364Zm0-2.15q.664-.001 1.044-.38.38-.38.38-1.203v-4.191q0-.824-.38-1.202-.381-.38-1.044-.38-.665 0-1.044.38-.364.379-.364 1.202v4.191q0 .824.364 1.202.379.38 1.044.38Z"/><path stroke="#E3E9EE" stroke-linecap="round" stroke-linejoin="round" stroke-width="2" d="m10.478 21.428 3.702-2.137m40.1 2.137L33.38 9.361a2 2 0 0 0-2 0l-12.867 7.428"/></svg>