<svg xmlns="http://www.w3.org/2000/svg" width="64" height="64" fill="none"><circle cx="32" cy="5.8" r="4.2" fill="#FFB464" stroke="#191911" stroke-linejoin="round" stroke-width="2"/><circle cx="32" cy="58.2" r="4.2" fill="#FFB464" stroke="#191911" stroke-linejoin="round" stroke-width="2"/><circle cx="5.8" cy="32.632" r="4.2" fill="#FFB464" stroke="#191911" stroke-linejoin="round" stroke-width="2" transform="rotate(-90 5.8 32.632)"/><circle cx="58.2" cy="32.632" r="4.2" fill="#FFB464" stroke="#191911" stroke-linejoin="round" stroke-width="2" transform="rotate(-90 58.2 32.632)"/><path fill="#E592D0" fill-rule="evenodd" d="M32.858 10.803c.487.035 1.165.093 1.934.187 1.479.18 3.328.496 4.782 1.044l.139.054c2.113.834 4.765 2.762 5.983 3.692l.224.172a.915.915 0 0 1-.008 1.452l-2.634 2.017-.027.02a.93.93 0 0 1-.946.075l-4.224-2.09v3.019a.926.926 0 0 1-1.087.911S33.98 20.47 32 20.47s-4.994.887-4.994.887a.926.926 0 0 1-1.087-.911v-3.02l-4.224 2.09a.93.93 0 0 1-.946-.074l-.027-.02-2.634-2.017a.915.915 0 0 1-.008-1.452l.224-.172c1.218-.93 3.87-2.858 5.983-3.692l.14-.053c1.453-.549 3.302-.865 4.781-1.045a40 40 0 0 1 1.934-.187 12 12 0 0 1 1.716 0m-1.65.923a39 39 0 0 0-1.888.183c-1.463.178-3.22.484-4.564.99l-.13.05c-2.105.832-4.862 2.871-5.968 3.726l2.627 2.011 4.223-2.09a.926.926 0 0 1 1.336.83v3.019c1.44-.256 3.113-.892 5.156-.892s5.156.892 5.156.892v-3.02a.926.926 0 0 1 1.336-.83l4.223 2.091 2.627-2.011c-1.106-.855-3.863-2.895-5.969-3.726l-.129-.05c-1.344-.506-3.101-.812-4.564-.99a39 39 0 0 0-1.888-.183 11 11 0 0 0-1.584 0" clip-rule="evenodd"/><path fill="#E592D0" d="M29.32 11.909a39 39 0 0 1 1.888-.183c.534-.038 1.05-.038 1.584 0a39 39 0 0 1 1.888.183c1.463.178 3.22.484 4.564.99l.13.05c2.105.832 4.862 2.871 5.968 3.726l-2.627 2.011-4.223-2.09a.926.926 0 0 0-1.336.83v3.019s-3.113-.892-5.156-.892c-1.415 0-2.652.305-3.757.578-.491.12-.956.235-1.399.314v-3.02a.926.926 0 0 0-1.336-.83l-4.223 2.091-2.627-2.011c1.106-.855 3.863-2.895 5.969-3.726l.129-.05c1.344-.506 3.101-.812 4.564-.99"/><path stroke="#191911" stroke-linecap="round" stroke-linejoin="round" stroke-width=".926" d="M26.844 20.445v-3.02a.926.926 0 0 0-1.336-.83l-4.223 2.091-2.627-2.011c1.106-.855 3.863-2.895 5.969-3.726l.129-.05c1.344-.506 3.101-.812 4.564-.99a39 39 0 0 1 1.888-.183c.534-.038 1.05-.038 1.584 0a39 39 0 0 1 1.888.183c1.463.178 3.22.484 4.564.99l.13.05c2.105.832 4.862 2.871 5.968 3.726l-2.627 2.011-4.223-2.09a.926.926 0 0 0-1.336.83v3.019s-3.113-.892-5.156-.892m-5.156.892c1.44-.256 3.113-.892 5.156-.892m-5.156.892c.443-.079.908-.193 1.399-.314 1.105-.273 2.342-.578 3.757-.578m.858-8.75c.487.035 1.165.093 1.934.187 1.479.18 3.328.496 4.782 1.044l.139.054c2.113.834 4.765 2.762 5.983 3.692l.224.172a.915.915 0 0 1-.008 1.452l-2.634 2.017-.027.02a.93.93 0 0 1-.946.075l-4.224-2.09v3.019a.926.926 0 0 1-1.087.911S33.98 20.47 32 20.47s-4.994.887-4.994.887a.926.926 0 0 1-1.087-.911v-3.02l-4.224 2.09a.93.93 0 0 1-.946-.074l-.027-.02-2.634-2.017a.915.915 0 0 1-.008-1.452l.224-.172c1.218-.93 3.87-2.858 5.983-3.692l.14-.053c1.453-.549 3.302-.865 4.781-1.045a40 40 0 0 1 1.934-.187 12 12 0 0 1 1.716 0"/><path fill="#E592D0" fill-rule="evenodd" d="M32.858 53.197a40 40 0 0 0 1.934-.187c1.479-.18 3.328-.496 4.782-1.044l.139-.054c2.113-.834 4.765-2.762 5.983-3.692l.224-.172a.915.915 0 0 0-.008-1.453l-2.634-2.016-.027-.02a.93.93 0 0 0-.946-.075l-4.224 2.09v-3.019a.926.926 0 0 0-1.087-.911s-3.013.887-4.994.887-4.994-.887-4.994-.887a.926.926 0 0 0-1.087.911v3.02l-4.224-2.09a.93.93 0 0 0-.946.074l-.027.02-2.634 2.017a.915.915 0 0 0-.008 1.452l.224.172c1.218.93 3.87 2.858 5.983 3.692l.14.053c1.453.549 3.302.865 4.781 1.045.769.094 1.447.152 1.934.187a12 12 0 0 0 1.716 0m-1.65-.923a39 39 0 0 1-1.888-.183c-1.463-.178-3.22-.484-4.564-.99l-.13-.05c-2.105-.832-4.862-2.871-5.968-3.726l2.627-2.011 4.223 2.09a.926.926 0 0 0 1.336-.83v-3.019c1.44.256 3.113.892 5.156.892s5.156-.892 5.156-.892v3.02a.926.926 0 0 0 1.336.83l4.223-2.091 2.627 2.011c-1.106.855-3.863 2.894-5.969 3.726l-.129.05c-1.344.506-3.101.812-4.564.99a39 39 0 0 1-1.888.183c-.534.038-1.05.038-1.584 0" clip-rule="evenodd"/><path fill="#E592D0" d="M31.208 52.274a39 39 0 0 1-1.888-.183c-1.463-.178-3.22-.484-4.564-.99l-.13-.05c-2.105-.832-4.862-2.871-5.968-3.726l2.627-2.011 4.223 2.09a.926.926 0 0 0 1.336-.83v-3.019c1.44.256 3.113.892 5.156.892s5.156-.892 5.156-.892v3.02a.926.926 0 0 0 1.336.83l4.223-2.091 2.627 2.011c-1.106.855-3.863 2.894-5.969 3.726l-.129.05c-1.344.506-3.101.812-4.564.99a39 39 0 0 1-1.888.183c-.534.038-1.05.038-1.584 0"/><path stroke="#191911" stroke-linecap="round" stroke-linejoin="round" stroke-width=".926" d="M32.858 53.197a40 40 0 0 0 1.934-.187c1.479-.18 3.328-.496 4.782-1.044l.139-.054c2.113-.834 4.765-2.762 5.983-3.692l.224-.172a.915.915 0 0 0-.008-1.453l-2.634-2.016-.027-.02a.93.93 0 0 0-.946-.075l-4.224 2.09v-3.019a.926.926 0 0 0-1.087-.911s-3.013.887-4.994.887-4.994-.887-4.994-.887a.926.926 0 0 0-1.087.911v3.02l-4.224-2.09a.93.93 0 0 0-.946.074l-.027.02-2.634 2.017a.915.915 0 0 0-.008 1.452l.224.172c1.218.93 3.87 2.858 5.983 3.692l.14.053c1.453.549 3.302.865 4.781 1.045.769.094 1.447.152 1.934.187a12 12 0 0 0 1.716 0m-1.65-.923a39 39 0 0 1-1.888-.183c-1.463-.178-3.22-.484-4.564-.99l-.13-.05c-2.105-.832-4.862-2.871-5.968-3.726l2.627-2.011 4.223 2.09a.926.926 0 0 0 1.336-.83v-3.019c1.44.256 3.113.892 5.156.892s5.156-.892 5.156-.892v3.02a.926.926 0 0 0 1.336.83l4.223-2.091 2.627 2.011c-1.106.855-3.863 2.894-5.969 3.726l-.129.05c-1.344.506-3.101.812-4.564.99a39 39 0 0 1-1.888.183c-.534.038-1.05.038-1.584 0" clip-rule="evenodd"/><path stroke="#191911" stroke-linecap="round" stroke-linejoin="round" stroke-width=".926" d="M31.208 52.274a39 39 0 0 1-1.888-.183c-1.463-.178-3.22-.484-4.564-.99l-.13-.05c-2.105-.832-4.862-2.871-5.968-3.726l2.627-2.011 4.223 2.09a.926.926 0 0 0 1.336-.83v-3.019c1.44.256 3.113.892 5.156.892s5.156-.892 5.156-.892v3.02a.926.926 0 0 0 1.336.83l4.223-2.091 2.627 2.011c-1.106.855-3.863 2.894-5.969 3.726l-.129.05c-1.344.506-3.101.812-4.564.99a39 39 0 0 1-1.888.183c-.534.038-1.05.038-1.584 0"/><path fill="#E592D0" fill-rule="evenodd" d="M10.803 31.142c.035-.487.093-1.165.187-1.934.18-1.479.496-3.328 1.044-4.782l.054-.139c.834-2.113 2.762-4.765 3.692-5.983l.172-.224a.915.915 0 0 1 1.452.008l2.017 2.634.02.027c.197.277.226.64.075.946l-2.09 4.224h3.019c.576 0 1.012.52.911 1.087 0 0-.887 3.013-.887 4.994s.887 4.994.887 4.994a.926.926 0 0 1-.911 1.087h-3.02l2.09 4.224a.93.93 0 0 1-.074.946l-.02.027-2.017 2.634a.915.915 0 0 1-1.452.008l-.172-.224c-.93-1.218-2.858-3.87-3.692-5.983l-.053-.14c-.549-1.453-.865-3.302-1.045-4.781a40 40 0 0 1-.187-1.934 12 12 0 0 1 0-1.716m.923 1.65c.034.475.091 1.138.183 1.888.178 1.463.484 3.22.99 4.565l.05.128c.832 2.106 2.871 4.863 3.726 5.97l2.011-2.628-2.09-4.223a.926.926 0 0 1 .83-1.336h3.019c-.256-1.44-.892-3.113-.892-5.156s.892-5.156.892-5.156h-3.02a.926.926 0 0 1-.83-1.336l2.091-4.223-2.011-2.627c-.855 1.106-2.895 3.863-3.726 5.969l-.05.129c-.506 1.344-.812 3.101-.99 4.564a39 39 0 0 0-.183 1.888c-.038.534-.038 1.05 0 1.584" clip-rule="evenodd"/><path fill="#E592D0" d="M11.726 32.792c.034.475.091 1.138.183 1.888.178 1.463.484 3.22.99 4.565l.05.128c.832 2.106 2.871 4.863 3.726 5.97l2.011-2.628-2.09-4.223a.926.926 0 0 1 .83-1.336h3.019c-.256-1.44-.892-3.113-.892-5.156s.892-5.156.892-5.156h-3.02a.926.926 0 0 1-.83-1.336l2.091-4.223-2.011-2.627c-.855 1.106-2.895 3.863-3.726 5.969l-.05.129c-.506 1.344-.812 3.101-.99 4.564a39 39 0 0 0-.183 1.888c-.038.534-.038 1.05 0 1.584"/><path stroke="#191911" stroke-linecap="round" stroke-linejoin="round" stroke-width=".926" d="M10.803 31.142c.035-.487.093-1.165.187-1.934.18-1.479.496-3.328 1.044-4.782l.054-.139c.834-2.113 2.762-4.765 3.692-5.983l.172-.224a.915.915 0 0 1 1.452.008l2.017 2.634.02.027c.197.277.226.64.075.946l-2.09 4.224h3.019c.576 0 1.012.52.911 1.087 0 0-.887 3.013-.887 4.994s.887 4.994.887 4.994a.926.926 0 0 1-.911 1.087h-3.02l2.09 4.224a.93.93 0 0 1-.074.946l-.02.027-2.017 2.634a.915.915 0 0 1-1.452.008l-.172-.224c-.93-1.218-2.858-3.87-3.692-5.983l-.053-.14c-.549-1.453-.865-3.302-1.045-4.781a40 40 0 0 1-.187-1.934 12 12 0 0 1 0-1.716m.923 1.65c.034.475.091 1.138.183 1.888.178 1.463.484 3.22.99 4.565l.05.128c.832 2.106 2.871 4.863 3.726 5.97l2.011-2.628-2.09-4.223a.926.926 0 0 1 .83-1.336h3.019c-.256-1.44-.892-3.113-.892-5.156s.892-5.156.892-5.156h-3.02a.926.926 0 0 1-.83-1.336l2.091-4.223-2.011-2.627c-.855 1.106-2.895 3.863-3.726 5.969l-.05.129c-.506 1.344-.812 3.101-.99 4.564a39 39 0 0 0-.183 1.888c-.038.534-.038 1.05 0 1.584" clip-rule="evenodd"/><path stroke="#191911" stroke-linecap="round" stroke-linejoin="round" stroke-width=".926" d="M11.726 32.792c.034.475.091 1.138.183 1.888.178 1.463.484 3.22.99 4.565l.05.128c.832 2.106 2.871 4.863 3.726 5.97l2.011-2.628-2.09-4.223a.926.926 0 0 1 .83-1.336h3.019c-.256-1.44-.892-3.113-.892-5.156s.892-5.156.892-5.156h-3.02a.926.926 0 0 1-.83-1.336l2.091-4.223-2.011-2.627c-.855 1.106-2.895 3.863-3.726 5.969l-.05.129c-.506 1.344-.812 3.101-.99 4.564a39 39 0 0 0-.183 1.888c-.038.534-.038 1.05 0 1.584"/><path fill="#E592D0" fill-rule="evenodd" d="M53.196 31.142a40 40 0 0 0-.187-1.934c-.18-1.479-.496-3.328-1.044-4.782l-.054-.139c-.834-2.113-2.762-4.765-3.692-5.983l-.172-.224a.915.915 0 0 0-1.453.008l-2.016 2.634-.02.027a.93.93 0 0 0-.075.946l2.09 4.224h-3.019a.926.926 0 0 0-.911 1.087s.887 3.013.887 4.994-.887 4.994-.887 4.994a.926.926 0 0 0 .911 1.087h3.02l-2.09 4.224a.93.93 0 0 0 .074.946l.02.027 2.016 2.634a.915.915 0 0 0 1.453.008l.172-.224c.93-1.218 2.858-3.87 3.692-5.983l.053-.14c.549-1.453.865-3.302 1.045-4.781a40 40 0 0 0 .187-1.934 12 12 0 0 0 0-1.716m-.923 1.65a39 39 0 0 1-.183 1.888c-.178 1.463-.484 3.22-.99 4.565l-.05.128c-.831 2.106-2.871 4.863-3.726 5.97l-2.011-2.628 2.09-4.223a.926.926 0 0 0-.83-1.336h-3.019c.256-1.44.892-3.113.892-5.156s-.892-5.156-.892-5.156h3.02a.926.926 0 0 0 .83-1.336l-2.091-4.223 2.011-2.627c.855 1.106 2.895 3.863 3.726 5.969l.05.129c.506 1.344.812 3.101.99 4.564.092.75.149 1.413.183 1.888a11 11 0 0 1 0 1.584" clip-rule="evenodd"/><path fill="#E592D0" d="M52.273 32.792a39 39 0 0 1-.183 1.888c-.178 1.463-.484 3.22-.99 4.565l-.05.128c-.831 2.106-2.871 4.863-3.726 5.97l-2.011-2.628 2.09-4.223a.926.926 0 0 0-.83-1.336h-3.019c.256-1.44.892-3.113.892-5.156s-.892-5.156-.892-5.156h3.02a.926.926 0 0 0 .83-1.336l-2.091-4.223 2.011-2.627c.855 1.106 2.895 3.863 3.726 5.969l.05.129c.506 1.344.812 3.101.99 4.564.092.75.149 1.413.183 1.888a11 11 0 0 1 0 1.584"/><path stroke="#191911" stroke-linecap="round" stroke-linejoin="round" stroke-width=".926" d="M53.196 31.142a40 40 0 0 0-.187-1.934c-.18-1.479-.496-3.328-1.044-4.782l-.054-.139c-.834-2.113-2.762-4.765-3.692-5.983l-.172-.224a.915.915 0 0 0-1.453.008l-2.016 2.634-.02.027a.93.93 0 0 0-.075.946l2.09 4.224h-3.019a.926.926 0 0 0-.911 1.087s.887 3.013.887 4.994-.887 4.994-.887 4.994a.926.926 0 0 0 .911 1.087h3.02l-2.09 4.224a.93.93 0 0 0 .074.946l.02.027 2.016 2.634a.915.915 0 0 0 1.453.008l.172-.224c.93-1.218 2.858-3.87 3.692-5.983l.053-.14c.549-1.453.865-3.302 1.045-4.781a40 40 0 0 0 .187-1.934 12 12 0 0 0 0-1.716m-.923 1.65a39 39 0 0 1-.183 1.888c-.178 1.463-.484 3.22-.99 4.565l-.05.128c-.831 2.106-2.871 4.863-3.726 5.97l-2.011-2.628 2.09-4.223a.926.926 0 0 0-.83-1.336h-3.019c.256-1.44.892-3.113.892-5.156s-.892-5.156-.892-5.156h3.02a.926.926 0 0 0 .83-1.336l-2.091-4.223 2.011-2.627c.855 1.106 2.895 3.863 3.726 5.969l.05.129c.506 1.344.812 3.101.99 4.564.092.75.149 1.413.183 1.888a11 11 0 0 1 0 1.584" clip-rule="evenodd"/><path stroke="#191911" stroke-linecap="round" stroke-linejoin="round" stroke-width=".926" d="M52.273 32.792a39 39 0 0 1-.183 1.888c-.178 1.463-.484 3.22-.99 4.565l-.05.128c-.831 2.106-2.871 4.863-3.726 5.97l-2.011-2.628 2.09-4.223a.926.926 0 0 0-.83-1.336h-3.019c.256-1.44.892-3.113.892-5.156s-.892-5.156-.892-5.156h3.02a.926.926 0 0 0 .83-1.336l-2.091-4.223 2.011-2.627c.855 1.106 2.895 3.863 3.726 5.969l.05.129c.506 1.344.812 3.101.99 4.564.092.75.149 1.413.183 1.888a11 11 0 0 1 0 1.584"/><path fill="#D9D9D9" d="M25.966 36.238h-1.333c-.57 0-1.033-.463-1.033-1.034V25.36c0-.57.462-1.033 1.033-1.033h14.733c.571 0 1.034.463 1.034 1.033v9.844c0 .571-.463 1.034-1.034 1.034h-8.795s-.51 1.223-.933 1.874c-.472.725-1.37 1.56-1.37 1.56s-.025-.042-.299-.683c-.468-1.1-2.004-2.751-2.004-2.751"/><path stroke="#191911" stroke-linecap="round" stroke-linejoin="round" stroke-width="1.6" d="M32 24.327h-7.367c-.57 0-1.033.463-1.033 1.033v9.844c0 .571.462 1.034 1.033 1.034h1.332s1.536 1.652 2.005 2.75c.273.642.298.684.298.685 0 0 .898-.836 1.37-1.561.423-.651.933-1.874.933-1.874h8.795c.571 0 1.034-.463 1.034-1.034V25.36c0-.57-.463-1.033-1.034-1.033h-3.683"/><path stroke="#191911" stroke-linecap="round" stroke-linejoin="round" d="M28.75 27.352h9.08m-11.848 2.407h11.849m-11.849 3.036h8.527"/></svg>