<svg xmlns="http://www.w3.org/2000/svg" width="64" height="64" fill="none"><circle cx="55.481" cy="8.201" r="3.261" fill="#F8E883" stroke="#191911" stroke-linejoin="round" stroke-width="2"/><circle cx="55.481" cy="57.512" r="3.261" fill="#F8E883" stroke="#191911" stroke-linejoin="round" stroke-width="2"/><circle cx="8.095" cy="25.445" r="3.261" fill="#F8E883" stroke="#191911" stroke-linejoin="round" stroke-width="2"/><circle cx="22.179" cy="35.261" r="3.261" fill="#F8E883" stroke="#191911" stroke-linejoin="round" stroke-width="2"/><path stroke="#191911" stroke-linecap="round" stroke-width="3" d="M2.839.72S20.552 12.9 31.88 15.705s29.98 1.63 29.98 1.63"/><path fill="#FF6A47" d="M7.278 16.002V5.188l10.837 6.29-4.966 2.867-4.37 2.523a1 1 0 0 1-1.5-.866"/><path stroke="#191911" stroke-linecap="round" stroke-width="2" d="m9.653 16.363-.875.505a1 1 0 0 1-1.5-.866V5.188l10.837 6.29-4.966 2.867"/><path fill="#E592D0" d="m20.05 12.628 11.94 3.792-7.946 7.285a1 1 0 0 1-1.652-.52z"/><path stroke="#191911" stroke-linecap="round" stroke-width="2" d="M22.393 23.185 20.05 12.628l11.94 3.792-7.946 7.285m-1.652-.52a1 1 0 0 0 1.652.52m-1.652-.52v0a1 1 0 0 0 1.652.52v0"/><path fill="#F8E883" stroke="#191911" stroke-linecap="round" stroke-width="2" d="m37.897 26.758-4.55-9.81 12.476 1.146-6.2 8.818a1 1 0 0 1-1.726-.154Z"/><path fill="#A0E5A5" stroke="#191911" stroke-linecap="round" stroke-width="2" d="m53.287 27.298-5.724-9.175 12.523-.4-5.068 9.516a1 1 0 0 1-1.731.059Z"/><path stroke="#191911" stroke-linecap="round" stroke-width="3" d="M5.114 49.215s18.406.203 29.577-3.174 29.23-16.66 29.23-16.66"/><path fill="#E592D0" stroke="#191911" stroke-linecap="round" stroke-width="2" d="M13.696 58.867 8.17 49.571l12.529-.13-2.804 5.002-2.468 4.402a1 1 0 0 1-1.732.022Z"/><path fill="#75D2F5" stroke="#191911" stroke-linecap="round" stroke-width="2" d="m30.357 57.32-7.407-7.88 12.202-2.84-3.109 10.322a1 1 0 0 1-1.686.397Z"/><path fill="#A0E5A5" d="m45.512 52.47-8.924-6.109 11.31-5.39-.239 3.12-.586 7.63a1 1 0 0 1-1.561.748"/><path stroke="#191911" stroke-linecap="round" stroke-width="2" d="m47.66 44.09.239-3.118-11.311 5.39 9.499 6.5a.6.6 0 0 0 .937-.446l.348-4.345"/><path fill="#9989F6" stroke="#191911" stroke-linecap="round" stroke-width="2" d="m59.017 45.071-9.608-4.963 10.561-6.74.505 10.768a1 1 0 0 1-1.458.935Z"/></svg>