<svg xmlns="http://www.w3.org/2000/svg" width="64" height="64" fill="none"><path fill="#75D2F5" d="M4.531 5.924a3.67 3.67 0 0 1 3.672-3.672h47.648a3.67 3.67 0 0 1 3.672 3.672v22.81l-.246 7.124a2.593 2.593 0 0 1-2.592 2.504c-.685 0-1.342.27-1.828.754l-2.943 2.925a3.67 3.67 0 0 1-5.04.131l-2.99-2.68a3.67 3.67 0 0 0-2.451-.937H22.669c-.916 0-1.798.342-2.474.958l-2.835 2.585a3.67 3.67 0 0 1-5.074-.12l-2.748-2.755a2.93 2.93 0 0 0-2.075-.861A2.93 2.93 0 0 1 4.53 35.43z"/><path stroke="#191911" stroke-linecap="round" stroke-linejoin="round" stroke-width="2" d="M59.506 17.747v-12a3.67 3.67 0 0 0-3.672-3.673H8.22a3.67 3.67 0 0 0-3.672 3.672v29.176a3.67 3.67 0 0 0 3.618 3.672l.434.006m50.907-9.782v6.109a3.67 3.67 0 0 1-3.613 3.672l-.094.001m-34.6 0h22m-34.6 0 6.1 5.8 6.5-5.8m22.2 0 5.9 5.8 6.5-5.8"/><circle cx="32.029" cy="50.363" r="4.194" fill="#FFB464" stroke="#191911" stroke-linejoin="round" stroke-width="2"/><path fill="#FFB464" d="M26.177 58.593a1 1 0 0 1 1-1h9.648a1 1 0 0 1 1 1v17.663a1 1 0 0 1-1 1h-9.648a1 1 0 0 1-1-1z"/><path stroke="#191911" stroke-width="2" d="M37.825 77.256V58.593a1 1 0 0 0-1-1h-9.648a1 1 0 0 0-1 1v18.663"/><circle cx="48.476" cy="50.363" r="4.194" fill="#FFB464" stroke="#191911" stroke-linejoin="round" stroke-width="2"/><path fill="#FFB464" d="M42.624 58.593a1 1 0 0 1 1-1h9.648a1 1 0 0 1 1 1v17.663a1 1 0 0 1-1 1h-9.648a1 1 0 0 1-1-1z"/><path stroke="#191911" stroke-width="2" d="M54.272 77.256V58.593a1 1 0 0 0-1-1h-9.648a1 1 0 0 0-1 1v18.663"/><circle cx="15.581" cy="50.65" r="4.194" fill="#FFB464" stroke="#191911" stroke-linejoin="round" stroke-width="2"/><path fill="#FFB464" d="M9.729 58.88a1 1 0 0 1 1-1h9.648a1 1 0 0 1 1 1v17.663a1 1 0 0 1-1 1h-9.648a1 1 0 0 1-1-1z"/><path stroke="#191911" stroke-width="2" d="M21.377 77.543V58.88a1 1 0 0 0-1-1h-9.648a1 1 0 0 0-1 1v18.663"/><path fill="#F8E883" stroke="#191911" stroke-linejoin="round" stroke-width="2" d="M27.778 34.533s2.564.651 4.222.651 4.221-.65 4.221-.65v6.4a2 2 0 0 1-2 2h-4.443a2 2 0 0 1-2-2z"/><rect width="17.9" height="17.9" x="23.05" y="18.357" fill="#F8E883" stroke="#191911" stroke-width="2" rx="8.95"/><path stroke="#191911" stroke-linecap="round" stroke-linejoin="round" stroke-width="2" d="M32 8.2v3.2m-10.55-.898 1.6 2.771m19.5-2.771-1.6 2.771m-27.42 4.542 2.77 1.6m34.17-1.6-2.772 1.6"/><path stroke="#E3E9EE" stroke-linecap="round" stroke-linejoin="round" stroke-width="2" d="M8.994 29.148V12.16m0-2.91V6.502"/></svg>