<svg xmlns="http://www.w3.org/2000/svg" width="64" height="64" fill="none" viewBox="0 0 64 64"><path fill="#e3e9ee" d="M2.6 2.2h58.6v26H2.6z"/><path stroke="#191911" stroke-linecap="round" stroke-linejoin="round" stroke-width="3" d="M9.81 2.2H3.028v26H61.2v-26H18.166"/><path stroke="#191911" stroke-linecap="round" stroke-linejoin="round" stroke-width="2.2" d="M9 10.2h29m-29 5h23.117M9 20.2h15.8"/><circle cx="47.241" cy="36.194" r="4.194" fill="#ffb464" stroke="#191911" stroke-linejoin="round" stroke-width="2"/><path fill="#ffb464" d="M41.39 44.07a1 1 0 0 1 1-1h9.647a1 1 0 0 1 1 1V61.8a1 1 0 0 1-1 1H42.39a1 1 0 0 1-1-1z"/><path stroke="#191911" stroke-linecap="round" stroke-linejoin="round" stroke-width="2" d="M53.037 43.07H42.39a1 1 0 0 0-1 1V62.8m11.647 0-.135-12.1"/><path fill="#ffb464" d="M54.55 43.07h-1.6v7.224l.001.02.001.045.002.034a1.3 1.3 0 0 0 .025.2l.008.043.006.025a1.6 1.6 0 0 0 .302.627l.012.017.037.043.014.016.034.037.023.024.02.02.037.036.022.019.034.03.035.027.026.021c.219.165.48.275.765.31l.013.001.057.006.025.002.09.003h.025l.053-.002.031-.001a1.4 1.4 0 0 0 .204-.026l.037-.007.031-.008.052-.012.02-.007.055-.016.02-.007.057-.02.014-.006q.108-.043.208-.1l.005-.003 4.849-2.81a1.61 1.61 0 0 0 .586-2.193 1.597 1.597 0 0 0-2.186-.588l-2.45 1.42v-2.839c0-.887-.716-1.606-1.6-1.606"/><path stroke="#191911" stroke-linecap="round" stroke-width="2" d="M51.66 43.07h2.89c.884 0 1.6.719 1.6 1.605v2.492a.2.2 0 0 0 .3.173l2.15-1.246a1.597 1.597 0 0 1 2.185.588m-7.792 3.979a1.6 1.6 0 0 0 .301.628l.013.016.037.044.014.016.034.037.023.024.02.02.037.035.022.02.034.029.035.027.026.021c.218.165.48.275.765.31l.013.002a2 2 0 0 0 .173.01h.023a1 1 0 0 0 .136-.007l.026-.002a2 2 0 0 0 .127-.02l.036-.007.083-.02.021-.006.054-.017.022-.007.056-.02.014-.006q.108-.042.207-.1l.005-.003 4.85-2.81a1.61 1.61 0 0 0 .585-2.193m0 0V27.964"/><circle cx="4.194" cy="4.194" r="4.194" fill="#ffb464" stroke="#191911" stroke-linejoin="round" stroke-width="2" transform="matrix(-1 0 0 1 20.952 32.001)"/><path fill="#ffb464" d="M22.61 44.07a1 1 0 0 0-1-1h-9.647a1 1 0 0 0-1 1V61.8a1 1 0 0 0 1 1h9.647a1 1 0 0 0 1-1z"/><path stroke="#191911" stroke-linecap="round" stroke-linejoin="round" stroke-width="2" d="M10.963 43.07H21.61a1 1 0 0 1 1 1V62.8m-11.647 0 .135-12.1"/><path fill="#ffb464" d="M9.45 43.07h1.6v7.244a1.7 1.7 0 0 1-.037.322l-.006.025a1.6 1.6 0 0 1-.301.627l-.013.017-.037.043-.014.016q-.015.02-.034.037l-.023.024-.02.02-.037.036-.022.019-.034.03-.034.027-.027.021c-.218.165-.48.275-.765.31l-.013.001-.057.006-.025.002-.09.003h-.024a2 2 0 0 1-.243-.02 2 2 0 0 1-.165-.036l-.021-.007a2 2 0 0 1-.132-.044l-.014-.005a2 2 0 0 1-.207-.1l-.005-.003-4.85-2.81a1.61 1.61 0 0 1-.585-2.193 1.597 1.597 0 0 1 2.185-.588l2.45 1.42v-2.839c0-.887.716-1.606 1.6-1.606"/><path stroke="#191911" stroke-linecap="round" stroke-width="2" d="M12.341 43.07h-2.89c-.885 0-1.6.718-1.6 1.605v2.491a.2.2 0 0 1-.3.174L5.4 46.094a1.597 1.597 0 0 0-2.186.588m7.792 3.979a1.6 1.6 0 0 1-.301.627l-.013.017-.037.043-.013.016-.035.037-.023.024-.02.02-.037.036-.022.019-.034.03-.034.027-.027.021c-.218.165-.48.274-.765.31l-.013.001-.056.005-.025.003-.091.003h-.024a1 1 0 0 1-.136-.007l-.026-.003-.08-.01-.047-.009-.036-.007-.032-.008-.051-.012-.021-.007-.054-.016-.021-.007-.056-.02-.015-.006a2 2 0 0 1-.207-.1l-.005-.003-4.85-2.81a1.61 1.61 0 0 1-.585-2.193m0 0v-18.79"/><circle cx="32.115" cy="36.194" r="4.194" fill="#ffb464" stroke="#191911" stroke-linejoin="round" stroke-width="2"/><path fill="#ffb464" d="M26.263 44.068a1 1 0 0 1 1-1h9.648a1 1 0 0 1 1 1V61.8a1 1 0 0 1-1 1h-9.648a1 1 0 0 1-1-1z"/><path stroke="#191911" stroke-linecap="round" stroke-linejoin="round" stroke-width="2" d="m37.91 62.8-.134-12.101.117-6.613a1 1 0 0 0-1-1.018h-9.63a1 1 0 0 0-1 1V62.8"/><circle cx="52.95" cy="22.8" r="1.2" fill="#e592d0" stroke="#191911" stroke-linejoin="round"/><ellipse cx="52.95" cy="12.799" fill="#e592d0" stroke="#191911" stroke-linejoin="round" rx="1.6" ry="6.4"/></svg>