<svg xmlns="http://www.w3.org/2000/svg" width="64" height="64" fill="none"><circle cx="32.1" cy="32.1" r="27.3" fill="#F8E883"/><path stroke="#191911" stroke-linecap="round" stroke-width="3" d="M10.675 15.181a27.3 27.3 0 1 1-5.268 11.19"/><path fill="#505047" d="M15.192 27.576a1.5 1.5 0 0 0 2.303 1.923zm30.684-13.973a1.5 1.5 0 0 0-1.628-1.36l-13.446 1.211a1.5 1.5 0 0 0 .27 2.988l11.95-1.076L44.1 27.317a1.5 1.5 0 1 0 2.988-.269zM31.623 27.698l-1.351.652zm1.001.124-1.151-.96zm-6.934-10.48-1.152-.962zm1.001.123 1.351-.65zM16.344 28.537l1.151.962 9.346-11.196-1.151-.962-1.152-.96-9.346 11.195zM26.69 17.465l-1.351.652 4.932 10.233 1.351-.652 1.351-.65-4.932-10.234zm5.933 10.357 1.152.962 11.758-14.085-1.152-.962-1.151-.961-11.758 14.085zm-1.001-.124-1.351.652a2.1 2.1 0 0 0 3.504.434l-1.152-.962-1.151-.96a.9.9 0 0 1 1.501.185zM25.69 17.341l1.151.962a.9.9 0 0 1-1.501-.186l1.351-.652 1.351-.65a2.1 2.1 0 0 0-3.504-.435z"/><circle cx="32.028" cy="39.643" r="4.199" fill="#E592D0" stroke="#191911" stroke-linejoin="round" stroke-width="2"/><path fill="#E592D0" d="M26.169 47.889a1 1 0 0 1 1-1h9.663a1 1 0 0 1 1 1v17.678a1 1 0 0 1-1 1h-9.663a1 1 0 0 1-1-1z"/><path stroke="#191911" stroke-width="2" d="M37.832 66.567V47.889a1 1 0 0 0-1-1h-9.663a1 1 0 0 0-1 1v18.678"/><circle cx="48.497" cy="39.643" r="4.199" fill="#E592D0" stroke="#191911" stroke-linejoin="round" stroke-width="2"/><path fill="#E592D0" d="M42.638 47.889a1 1 0 0 1 1-1H53.3a1 1 0 0 1 1 1v17.678a1 1 0 0 1-1 1h-9.662a1 1 0 0 1-1-1z"/><path stroke="#191911" stroke-width="2" d="M54.3 66.567V47.889a1 1 0 0 0-1-1h-9.662a1 1 0 0 0-1 1v18.678"/><circle cx="15.559" cy="39.931" r="4.199" fill="#E592D0" stroke="#191911" stroke-linejoin="round" stroke-width="2"/><path fill="#E592D0" d="M9.7 48.176a1 1 0 0 1 1-1h9.663a1 1 0 0 1 1 1v17.678a1 1 0 0 1-1 1H10.7a1 1 0 0 1-1-1z"/><path stroke="#191911" stroke-width="2" d="M21.363 66.854V48.176a1 1 0 0 0-1-1H10.7a1 1 0 0 0-1 1v18.678"/></svg>