<svg xmlns="http://www.w3.org/2000/svg" width="64" height="64" fill="none"><circle cx="39.756" cy="46.383" r="4.194" fill="#FFB464" stroke="#191911" stroke-linejoin="round" stroke-width="2"/><path fill="#FFB464" d="M33.904 54.613a1 1 0 0 1 1-1h9.648a1 1 0 0 1 1 1v17.663a1 1 0 0 1-1 1h-9.648a1 1 0 0 1-1-1z"/><path stroke="#191911" stroke-width="2" d="M45.552 73.276V54.613a1 1 0 0 0-1-1h-9.648a1 1 0 0 0-1 1v18.663"/><circle cx="56.204" cy="46.383" r="4.194" fill="#FFB464" stroke="#191911" stroke-linejoin="round" stroke-width="2"/><path fill="#FFB464" d="M50.352 54.613a1 1 0 0 1 1-1H61a1 1 0 0 1 1 1v17.663a1 1 0 0 1-1 1h-9.648a1 1 0 0 1-1-1z"/><path stroke="#191911" stroke-width="2" d="M62 73.276V54.613a1 1 0 0 0-1-1h-9.648a1 1 0 0 0-1 1v18.663"/><circle cx="23.308" cy="46.671" r="4.194" fill="#FFB464" stroke="#191911" stroke-linejoin="round" stroke-width="2"/><path fill="#FFB464" d="M17.456 54.901a1 1 0 0 1 1-1h9.648a1 1 0 0 1 1 1v17.663a1 1 0 0 1-1 1h-9.648a1 1 0 0 1-1-1z"/><path stroke="#191911" stroke-width="2" d="M29.104 73.564V54.901a1 1 0 0 0-1-1h-9.648a1 1 0 0 0-1 1v18.663"/><path fill="#75D2F5" d="M18.714 2.472H61.6v31.271H18.714z"/><path stroke="#191911" stroke-linecap="round" stroke-linejoin="round" stroke-width="3" d="M25.266 33.743H61.6V2.472H19.027V7.83"/><circle cx="11.338" cy="12.983" r="4.194" fill="#FFB464" stroke="#191911" stroke-linejoin="round" stroke-width="2"/><path fill="#FFB464" d="M5.487 21.014a1 1 0 0 1 1-1h9.648a1 1 0 0 1 1 1v17.663a1 1 0 0 1-1 1H6.487a1 1 0 0 1-1-1z"/><path fill="#FFB464" d="M2.67 21.614a1.6 1.6 0 1 1 3.2 0V35.87a1.6 1.6 0 1 1-3.2 0z"/><path stroke="#191911" stroke-linecap="round" stroke-linejoin="round" stroke-width="2" d="M5.487 20.014h11.648m0 19.663L17 27.617M5.487 39.678v-12.06"/><path stroke="#191911" stroke-width="2" d="M7.96 20.014H3.6a1.6 1.6 0 0 0-1.6 1.6V35.47a2 2 0 0 0 2 2h1.2"/><path fill="#FFB464" d="M18.648 20.014h-1.6v7.219a2 2 0 0 0 .007.127l.003.03.006.048.005.034.016.082.005.025c.055.232.16.444.302.625l.013.017.036.043.014.016.035.037.023.024.057.055.022.019.033.03.035.027.027.02c.218.165.48.274.765.31h.013a2 2 0 0 0 .172.011h.024a1 1 0 0 0 .136-.007l.026-.002.052-.007.029-.004.046-.008.036-.008.032-.007.051-.013.021-.006a2 2 0 0 0 .131-.044l.014-.005q.108-.043.208-.1l.005-.003 4.85-2.8a1.6 1.6 0 0 0-1.6-2.771l-2.45 1.414v-2.828a1.6 1.6 0 0 0-1.6-1.6"/><path stroke="#191911" stroke-linecap="round" stroke-width="2" d="M15.757 20.014h2.891a1.6 1.6 0 0 1 1.6 1.6v2.482a.2.2 0 0 0 .3.174l2.15-1.242a1.6 1.6 0 0 1 1.6 2.771l-4.85 2.8-.005.003a2 2 0 0 1-.207.1l-.014.005-.056.02-.022.008-.054.016-.02.006-.084.02-.036.008a2 2 0 0 1-.127.019l-.026.002a2 2 0 0 1-.136.007h-.023l-.092-.003-.025-.002-.056-.005-.013-.002a1.6 1.6 0 0 1-.765-.308l-.027-.021-.035-.028-.033-.03-.022-.018-.057-.055-.023-.024-.035-.037-.013-.016-.037-.043-.013-.017a1.6 1.6 0 0 1-.301-.625"/><path stroke="#191911" stroke-linecap="round" stroke-linejoin="round" stroke-width="2" d="M25.203 23.903 37.7 21.95"/><circle cx="47.987" cy="15.62" r="8.231" fill="#F8E883" stroke="#191911" stroke-width="2"/><path fill="#A0E5A5" stroke="#191911" stroke-width="2" d="M47.987 8.389c0-.553.45-1.007.998-.94a8.231 8.231 0 1 1-7.37 13.38c-.35-.427-.207-1.05.26-1.344l5.647-3.57a1 1 0 0 0 .465-.846z"/><path stroke="#191911" stroke-linecap="round" stroke-linejoin="round" stroke-width="2" d="M24.099 8.79h12.3m-12.3 4h9.805m-9.805 4H30.8"/></svg>