<svg xmlns="http://www.w3.org/2000/svg" width="64" height="64" fill="none"><rect width="23.501" height="4.75" x="20.249" y="57.625" fill="#A8B9C5" stroke="#191911" stroke-linejoin="round" stroke-width="2" rx="2.375"/><path fill="#A8B9C5" d="M4.984 25.552a4 4 0 0 1 4-4h46.032a4 4 0 0 1 4 4v21.31a4 4 0 0 1-4 4H8.984a4 4 0 0 1-4-4z"/><path stroke="#191911" stroke-linecap="round" stroke-linejoin="round" stroke-width="3" d="M59.016 34.15v-8.598a4 4 0 0 0-4-4H8.984a4 4 0 0 0-4 4v21.31a4 4 0 0 0 4 4h46.032a4 4 0 0 0 4-4v-3.814"/><path fill="#A8B9C5" stroke="#191911" stroke-linejoin="round" stroke-width="2" d="M27.59 50.862h8.821l1.4 6.762H26.19z"/><path fill="#191911" fill-rule="evenodd" d="M42.88 1.284c1.28 0 2.339.966 2.461 2.213.376-.137.816-.285 1.29-.416.697-.194 1.49-.36 2.266-.403.74-.041 1.54.027 2.234.361l.067.033c1.52.779 2.47 2.3 2.916 3.938.449 1.647.423 3.519-.108 5.166l-.037.109c-.401 1.114-1.342 1.873-2.37 2.434-1.07.583-2.384 1.03-3.661 1.441-1.308.422-2.583.81-3.694 1.283-1.12.478-1.949.994-2.425 1.6l-.082.105-.11.074c-3.629 2.43-5.162 5.389-5.803 7.723a12.2 12.2 0 0 0-.437 2.918q-.004.21-.001.387h4.423a2.978 2.978 0 1 1 0 5.957H24.19a2.978 2.978 0 0 1 0-5.957h4.424q.003-.176-.002-.387a12.2 12.2 0 0 0-.437-2.918c-.64-2.334-2.174-5.294-5.803-7.723l-.11-.074-.081-.104c-.477-.607-1.305-1.123-2.425-1.6-1.112-.474-2.387-.862-3.695-1.283-1.277-.413-2.59-.86-3.66-1.442-1.029-.56-1.97-1.32-2.37-2.434l-.038-.109c-.53-1.647-.556-3.52-.108-5.166.447-1.639 1.396-3.159 2.916-3.938l.067-.033c.694-.334 1.494-.402 2.235-.361.776.042 1.569.209 2.266.403.474.131.914.279 1.29.416a2.466 2.466 0 0 1 2.461-2.213zM24.19 32.25a.978.978 0 0 0 0 1.957h15.62a.979.979 0 0 0 0-1.957zM20.728 8.188c.236 1.172.706 2.763 1.228 4.441.607 1.948 1.276 3.992 1.617 5.396 3.81 2.647 5.494 5.874 6.209 8.479a14 14 0 0 1 .498 3.746h3.439q-.002-.197.003-.428c.02-.832.132-1.992.496-3.318.715-2.605 2.398-5.832 6.208-8.48.341-1.403 1.01-3.447 1.617-5.395.522-1.678.992-3.269 1.228-4.44zM15.01 4.341c-.585-.032-1.052.033-1.386.183l-.065.031c-.973.499-1.7 1.543-2.068 2.893-.365 1.343-.342 2.886.087 4.217l.018.054c.197.548.708 1.05 1.6 1.537.915.498 2.086.903 3.376 1.32 1.26.406 2.635.823 3.836 1.335q.495.21.969.456c-.302-.993-.66-2.109-1.012-3.243-.636-2.042-1.27-4.18-1.426-5.56l-.014-.13c-.071-.762-.13-1.475-.177-2.115l-.214-.087a16 16 0 0 0-1.612-.546c-.632-.176-1.299-.311-1.912-.345m35.363.183c-.333-.15-.8-.215-1.386-.183-.613.034-1.28.17-1.911.345a16 16 0 0 0-1.826.633c-.048.64-.107 1.353-.178 2.115l-.014.13c-.156 1.38-.79 3.518-1.425 5.56-.353 1.134-.71 2.25-1.013 3.243q.474-.247.97-.456c1.2-.512 2.575-.93 3.835-1.336 1.29-.416 2.462-.821 3.375-1.32.893-.486 1.404-.988 1.602-1.536l.018-.054c.428-1.33.452-2.874.086-4.217-.368-1.35-1.095-2.394-2.068-2.893zM21.12 2.95a.796.796 0 0 0-.806.84l.028.435.032.472.042.586q.045.585.1 1.24h22.966q.057-.655.101-1.24l.043-.586.032-.472.027-.434a.796.796 0 0 0-.806-.84z" clip-rule="evenodd"/><path fill="#F8E883" d="M21.12 2.95a.796.796 0 0 0-.806.84l.028.435.032.472.042.586q.045.585.1 1.24h22.966q.057-.655.101-1.24l.043-.586.032-.472.027-.434a.796.796 0 0 0-.806-.84zm3.07 29.3a.978.978 0 0 0 0 1.957h15.62a.979.979 0 0 0 0-1.957zM20.728 8.188c.236 1.172.706 2.763 1.228 4.441.607 1.948 1.276 3.992 1.617 5.396 3.81 2.647 5.494 5.874 6.209 8.479a14 14 0 0 1 .498 3.746h3.439q-.002-.197.003-.428c.02-.832.132-1.992.496-3.318.715-2.605 2.398-5.832 6.208-8.48.341-1.403 1.01-3.447 1.617-5.395.522-1.678.992-3.269 1.228-4.44z"/><path stroke="#191911" stroke-linecap="round" stroke-width="2" d="m28.179 11.371-2.591 2.59a.51.51 0 0 0 .018.74l2.572 2.327m7.643-5.657 2.591 2.59a.51.51 0 0 1-.018.74l-2.573 2.327m-5.192.117 2.742-5.891M4.964 46.231h6.314m47.759 0H15.304"/><path stroke="#E3E9EE" stroke-linecap="round" stroke-linejoin="round" stroke-width="2" d="M54.43 42.986v-11.33m0-3.382V25.08"/></svg>