<svg xmlns="http://www.w3.org/2000/svg" width="64" height="64" fill="none"><path stroke="#191911" stroke-linecap="round" stroke-linejoin="round" stroke-width="2" d="M30.4 44.58c0 1.767-4.567 3.2-10.2 3.2S10 46.346 10 44.58m44 0c0 1.767-4.566 3.2-10.2 3.2s-10.2-1.433-10.2-3.2"/><circle cx="8.4" cy="37.733" r="3.2" fill="#FFB464" stroke="#191911" stroke-linejoin="round" stroke-width="2"/><path fill="#FFB464" stroke="#191911" stroke-linejoin="round" stroke-width="2" d="M12.4 61.673h-8c0-1.768 1.791-3.2 4-3.2s4 1.432 4 3.2Z"/><path fill="#FFB464" stroke="#191911" stroke-linejoin="round" stroke-width="2" d="M6.801 40.934h3.2v17.54h-3.2z"/><circle cx="32" cy="37.733" r="3.2" fill="#FFB464" stroke="#191911" stroke-linejoin="round" stroke-width="2"/><path fill="#FFB464" stroke="#191911" stroke-linejoin="round" stroke-width="2" d="M36 61.673h-8c0-1.768 1.79-3.2 4-3.2s4 1.432 4 3.2Z"/><path fill="#FFB464" stroke="#191911" stroke-linejoin="round" stroke-width="2" d="M30.4 40.934h3.2v17.54h-3.2z"/><circle cx="55.6" cy="37.733" r="3.2" fill="#FFB464" stroke="#191911" stroke-linejoin="round" stroke-width="2"/><path fill="#FFB464" stroke="#191911" stroke-linejoin="round" stroke-width="2" d="M59.6 61.673h-8c0-1.768 1.791-3.2 4-3.2s4 1.432 4 3.2Z"/><path fill="#FFB464" stroke="#191911" stroke-linejoin="round" stroke-width="2" d="M54.001 40.934h3.2v17.54h-3.2z"/><path fill="#75D2F5" d="M4.601 2.327h54.8V28.1h-54.8z"/><circle cx="31.157" cy="9.777" r="3.261" fill="#F8E883" stroke="#191911" stroke-linejoin="round" stroke-width="2"/><path fill="#B98462" d="M17.922 14.903 4.862 27.59h26.579z"/><path stroke="#191911" stroke-linecap="round" stroke-linejoin="round" stroke-width="2" d="m4.6 28.1 4.089-3.99m23.418 3.99-6.877-6.713-5.445-5.316a2.06 2.06 0 0 0-2.862 0l-3.88 3.788"/><path fill="#B98462" d="M42.362 11.638 27.322 27.59h30.891c.881 0 1.332-1.055.722-1.691L45.262 11.626a2 2 0 0 0-2.9.012"/><path stroke="#191911" stroke-linecap="round" stroke-linejoin="round" stroke-width="2" d="m26.31 28.353 7.022-7.66m25.91 4.02L44.921 11.85a2.06 2.06 0 0 0-2.819.074l-4.564 4.565"/><path stroke="#191911" stroke-linecap="round" stroke-linejoin="round" stroke-width="3" d="M11.343 2.327H5.001v25.774h54.4V2.326H19.157"/></svg>