<svg xmlns="http://www.w3.org/2000/svg" width="64" height="64" fill="none"><path fill="#A8B9C5" d="M10.941 15.884h42.041v30.187H10.941z"/><path fill="#B98462" d="M2.235 10.133c0-.536.32-1.019.82-1.213a83 83 0 0 1 5.267-1.826 97 97 0 0 1 6.787-1.85c5.02-1.174 11.05-2.15 17.23-2.15 13.344 0 25.575 4.547 28.748 5.824.491.198.795.672.795 1.201v4.432c0 .736-.596 1.333-1.333 1.333H3.57a1.333 1.333 0 0 1-1.334-1.333z"/><path stroke="#191911" stroke-linecap="round" stroke-linejoin="round" stroke-width="3" d="M8.322 7.094A83 83 0 0 0 3.055 8.92c-.5.194-.82.677-.82 1.213v4.418c0 .736.597 1.333 1.334 1.333h56.98c.737 0 1.334-.597 1.334-1.333v-4.432c0-.53-.305-1.003-.796-1.201C57.914 7.64 45.683 3.095 32.34 3.095c-6.18 0-12.21.975-17.23 2.149"/><path fill="#B98462" stroke="#191911" stroke-linejoin="round" stroke-width="3" d="M60.667 46.07H3.333c-.736 0-1.333.597-1.333 1.334v8.533c0 .736.597 1.333 1.333 1.333h57.334c.736 0 1.333-.597 1.333-1.333v-8.533c0-.737-.597-1.334-1.333-1.334Z"/><path fill="#B98462" d="M52.983 15.884h6.276V46.07h-6.276z"/><path stroke="#191911" stroke-linecap="round" stroke-linejoin="round" stroke-width="2" d="M59.333 37.373v-21.49h-6.275v30.188h6.275V41.49"/><path fill="#FFB464" stroke="#191911" stroke-linejoin="round" stroke-width="2" d="M46.708 38.472c0-.53.43-.961.962-.961h5.313v8.56h-6.275z"/><path fill="#B98462" stroke="#191911" stroke-linejoin="round" stroke-width="2" d="M4.667 15.884h6.275V46.07H4.667z"/><path fill="#FFB464" stroke="#191911" stroke-linejoin="round" stroke-width="2" d="M10.941 37.51h5.314c.531 0 .962.431.962.962v7.599H10.94z"/><path fill="#FF6A47" stroke="#191911" stroke-linejoin="round" stroke-width="3" d="M18.725 46.07h26.667v13.502c0 .736-.597 1.333-1.333 1.333H20.058a1.333 1.333 0 0 1-1.333-1.333z"/><path fill="#191911" d="M46.243 14.818a1.5 1.5 0 0 1 1.5 1.5v4.451h1.475v3h-5.95a1.5 1.5 0 0 1 0-3h1.475v-4.45a1.5 1.5 0 0 1 1.5-1.5m2.976 5.952a1.5 1.5 0 0 1 0 3zm-12.527-5.953a1.5 1.5 0 0 1 1.5 1.5v4.451h1.475l.001 1.5-.001 1.5h-5.95a1.5 1.5 0 0 1 0-3h1.475v-4.45a1.5 1.5 0 0 1 1.5-1.5m2.976 5.952a1.5 1.5 0 0 1 0 3zm-21.91-5.953a1.5 1.5 0 0 1 1.5 1.5v4.451h1.474l.001 1.5v1.5h-5.95a1.5 1.5 0 0 1 0-3h1.475v-4.45a1.5 1.5 0 0 1 1.5-1.5m2.975 5.952a1.5 1.5 0 0 1 0 3zm6.409-5.953a1.5 1.5 0 0 1 1.5 1.5v4.451h1.474l.001 1.5v1.5h-5.951a1.5 1.5 0 0 1 0-3h1.476v-4.45a1.5 1.5 0 0 1 1.5-1.5m2.975 5.952a1.5 1.5 0 0 1 0 3z"/><path stroke="#E3E9EE" stroke-linecap="round" stroke-linejoin="round" stroke-width="2" d="M21.885 55.144h13.309m3.757 0h3.547"/></svg>