<svg xmlns="http://www.w3.org/2000/svg" width="64" height="64" fill="none"><path fill="#75D2F5" d="M4.504 8.394a3.67 3.67 0 0 1 3.672-3.672h47.648a3.67 3.67 0 0 1 3.672 3.672V30.88a3.67 3.67 0 0 1-3.672 3.672H8.176a3.67 3.67 0 0 1-3.672-3.672z"/><path stroke="#191911" stroke-linecap="round" stroke-linejoin="round" stroke-width="1.836" d="M8.64 14.152v-3.648c0-1.014.822-1.836 1.836-1.836h43.047c1.014 0 1.836.822 1.836 1.836V28.77a1.836 1.836 0 0 1-1.836 1.836H10.476A1.836 1.836 0 0 1 8.64 28.77V18.063"/><path stroke="#191911" stroke-linecap="round" stroke-linejoin="round" stroke-width="2.754" d="M59.479 17.522V8.246a3.67 3.67 0 0 0-3.672-3.672H8.192A3.67 3.67 0 0 0 4.52 8.246v22.782A3.67 3.67 0 0 0 8.192 34.7h47.615a3.67 3.67 0 0 0 3.672-3.672v-4.36"/><circle cx="32.028" cy="18.955" r="4.194" fill="#FFB464" stroke="#191911" stroke-linejoin="round" stroke-width="2"/><path fill="#FFB464" d="M26.176 27.185a1 1 0 0 1 1-1h9.648a1 1 0 0 1 1 1v17.662a1 1 0 0 1-1 1h-9.648a1 1 0 0 1-1-1z"/><path stroke="#191911" stroke-width="2" d="M37.824 45.848V27.184a1 1 0 0 0-1-1h-9.648a1 1 0 0 0-1 1v18.662"/><rect width="47.288" height="4.75" x="8.355" y="39.117" fill="#B98462" stroke="#191911" stroke-linejoin="round" stroke-width="2" rx="2.375"/><path fill="#B98462" d="M53.102 43.867H10.898v19.66a4 4 0 0 0 4 4h34.204a4 4 0 0 0 4-4z"/><path stroke="#191911" stroke-linecap="round" stroke-linejoin="round" stroke-width="2" d="M10.898 48.572v-4.705h42.204v19.66a4 4 0 0 1-4 4H14.898a4 4 0 0 1-4-4v-7.734"/><circle cx="24.804" cy="50.955" r="4.194" fill="#FFB464" stroke="#191911" stroke-linejoin="round" stroke-width="2"/><path fill="#FFB464" d="M18.952 59.185a1 1 0 0 1 1-1H29.6a1 1 0 0 1 1 1v17.662a1 1 0 0 1-1 1h-9.648a1 1 0 0 1-1-1z"/><path stroke="#191911" stroke-width="2" d="M30.6 77.848V59.185a1 1 0 0 0-1-1h-9.648a1 1 0 0 0-1 1v18.662"/><circle cx="39.251" cy="50.955" r="4.194" fill="#FFB464" stroke="#191911" stroke-linejoin="round" stroke-width="2"/><path fill="#FFB464" d="M33.4 59.185a1 1 0 0 1 1-1h9.647a1 1 0 0 1 1 1v17.662a1 1 0 0 1-1 1H34.4a1 1 0 0 1-1-1z"/><path stroke="#191911" stroke-width="2" d="M45.047 77.848V59.185a1 1 0 0 0-1-1H34.4a1 1 0 0 0-1 1v18.662"/><circle cx="53.7" cy="50.955" r="4.194" fill="#FFB464" stroke="#191911" stroke-linejoin="round" stroke-width="2"/><path fill="#FFB464" d="M47.848 59.185a1 1 0 0 1 1-1h9.648a1 1 0 0 1 1 1v17.662a1 1 0 0 1-1 1h-9.648a1 1 0 0 1-1-1z"/><path stroke="#191911" stroke-width="2" d="M59.496 77.848V59.185a1 1 0 0 0-1-1h-9.648a1 1 0 0 0-1 1v18.662"/><circle cx="10.356" cy="51.242" r="4.194" fill="#FFB464" stroke="#191911" stroke-linejoin="round" stroke-width="2"/><path fill="#FFB464" d="M4.504 59.472a1 1 0 0 1 1-1h9.648a1 1 0 0 1 1 1v17.663a1 1 0 0 1-1 1H5.504a1 1 0 0 1-1-1z"/><path stroke="#191911" stroke-width="2" d="M16.152 78.135V59.472a1 1 0 0 0-1-1H5.504a1 1 0 0 0-1 1v18.663"/><path stroke="#E3E9EE" stroke-linecap="round" stroke-linejoin="round" stroke-width="2" d="M50.7 27.356V17.045m0-2.91v-2.748"/></svg>