<svg xmlns="http://www.w3.org/2000/svg" width="48" height="48" fill="none"><g clip-path="url(#a)"><path fill="url(#b)" d="M24.011.364c-9.87 0-12.756.01-13.317.056-2.025.17-3.286.488-4.659 1.171A9.4 9.4 0 0 0 3.32 3.58C1.819 5.137.91 7.052.581 9.33c-.16 1.105-.207 1.33-.216 6.977-.004 1.882 0 4.36 0 7.682 0 9.862.01 12.745.058 13.305.164 1.971.473 3.211 1.127 4.568 1.251 2.596 3.64 4.545 6.455 5.272.974.251 2.05.39 3.432.455.586.025 6.553.043 12.524.043s11.941-.007 12.512-.036c1.6-.075 2.529-.2 3.556-.465a9.9 9.9 0 0 0 6.454-5.284c.642-1.324.968-2.611 1.115-4.479.032-.407.046-6.9.046-13.385 0-6.486-.015-12.968-.047-13.375-.15-1.898-.475-3.175-1.137-4.524a9.4 9.4 0 0 0-2.024-2.772C42.872 1.818 40.96.909 38.681.58 37.576.42 37.356.373 31.705.364z"/><path fill="url(#c)" d="M24.011.364c-9.87 0-12.756.01-13.317.056-2.025.17-3.286.488-4.659 1.171A9.4 9.4 0 0 0 3.32 3.58C1.819 5.137.91 7.052.581 9.33c-.16 1.105-.207 1.33-.216 6.977-.004 1.882 0 4.36 0 7.682 0 9.862.01 12.745.058 13.305.164 1.971.473 3.211 1.127 4.568 1.251 2.596 3.64 4.545 6.455 5.272.974.251 2.05.39 3.432.455.586.025 6.553.043 12.524.043s11.941-.007 12.512-.036c1.6-.075 2.529-.2 3.556-.465a9.9 9.9 0 0 0 6.454-5.284c.642-1.324.968-2.611 1.115-4.479.032-.407.046-6.9.046-13.385 0-6.486-.015-12.968-.047-13.375-.15-1.898-.475-3.175-1.137-4.524a9.4 9.4 0 0 0-2.024-2.772C42.872 1.818 40.96.909 38.681.58 37.576.42 37.356.373 31.705.364z"/><path fill="#fff" d="M24.002 6.545c-4.74 0-5.335.021-7.196.106-1.859.085-3.127.38-4.237.81a8.55 8.55 0 0 0-3.092 2.014 8.6 8.6 0 0 0-2.014 3.091c-.433 1.11-.727 2.38-.811 4.237-.083 1.861-.105 2.457-.105 7.197s.021 5.334.105 7.195c.086 1.858.38 3.127.811 4.237a8.55 8.55 0 0 0 2.013 3.092 8.55 8.55 0 0 0 3.091 2.014c1.11.432 2.38.726 4.237.811 1.862.085 2.456.106 7.196.106s5.334-.021 7.196-.106c1.858-.085 3.128-.38 4.238-.81a8.5 8.5 0 0 0 3.09-2.015 8.6 8.6 0 0 0 2.014-3.092c.43-1.11.724-2.379.811-4.236.084-1.862.106-2.456.106-7.196s-.022-5.335-.106-7.197c-.087-1.858-.382-3.127-.81-4.236a8.6 8.6 0 0 0-2.015-3.092 8.5 8.5 0 0 0-3.091-2.013c-1.113-.432-2.382-.726-4.24-.811-1.862-.085-2.454-.106-7.196-.106zm-1.565 3.146h1.565c4.66 0 5.213.017 7.053.1 1.702.078 2.626.362 3.24.601a5.4 5.4 0 0 1 2.007 1.306c.61.61.989 1.193 1.306 2.007.239.615.523 1.538.6 3.24.084 1.84.103 2.393.103 7.051s-.019 5.21-.102 7.05c-.078 1.703-.362 2.626-.601 3.24a5.4 5.4 0 0 1-1.306 2.006c-.611.61-1.191.99-2.006 1.305-.615.24-1.539.524-3.24.602-1.84.084-2.393.102-7.054.102-4.66 0-5.213-.018-7.052-.102-1.702-.079-2.626-.363-3.241-.602a5.4 5.4 0 0 1-2.008-1.305 5.4 5.4 0 0 1-1.306-2.007c-.239-.614-.524-1.538-.6-3.24-.085-1.84-.101-2.392-.101-7.053s.016-5.211.1-7.051c.078-1.702.362-2.626.601-3.241a5.4 5.4 0 0 1 1.306-2.007 5.4 5.4 0 0 1 2.008-1.306c.615-.24 1.539-.524 3.24-.602 1.61-.073 2.235-.095 5.488-.098zm10.882 2.898a2.094 2.094 0 1 0 0 4.19 2.094 2.094 0 0 0 0-4.19m-9.317 2.447a8.964 8.964 0 1 0 .001 17.928 8.964 8.964 0 0 0 0-17.928m0 3.146a5.818 5.818 0 1 1 0 11.636 5.818 5.818 0 0 1 0-11.636"/></g><defs><radialGradient id="b" cx="0" cy="0" r="1" gradientTransform="matrix(0 -46.8468 43.5818 0 12.922 51.273)" gradientUnits="userSpaceOnUse"><stop stop-color="#FD5"/><stop offset=".1" stop-color="#FD5"/><stop offset=".5" stop-color="#FF543E"/><stop offset="1" stop-color="#C837AB"/></radialGradient><radialGradient id="c" cx="0" cy="0" r="1" gradientTransform="rotate(78.678 -6.077 -2.725)scale(20.9409 86.3386)" gradientUnits="userSpaceOnUse"><stop stop-color="#3771C8"/><stop offset=".128" stop-color="#3771C8"/><stop offset="1" stop-color="#60F" stop-opacity="0"/></radialGradient><clipPath id="a"><path fill="#fff" d="M0 0h48v48H0z"/></clipPath></defs></svg>