<svg xmlns="http://www.w3.org/2000/svg" width="48" height="48" fill="none"><path fill="url(#a)" d="M23.875 0a24 24 0 1 0 .25 0M17.25 26.875c-1.75 1.125-2.75 1-4.25.625s-2.625-.75-4.125-1.25-2-1.625.625-2.625Q30.375 14.501 33.75 13.5c2.375-.75 3 .25 2.75 2.125q-.874 7.5-3 18.875c-.375 2.125-1.375 3.875-4.5 1.75L21.25 31q-1.75-1.25-.625-2.5c1.625-1.875 4.5-4.125 8.375-8.125q.626-.625.375-1-.25-.375-1 .125"/><defs><linearGradient id="a" x1="0" x2="0" y1="0" y2="48" gradientUnits="userSpaceOnUse"><stop stop-color="#2AABEE"/><stop offset="1" stop-color="#229ED9"/></linearGradient></defs></svg>