<svg xmlns="http://www.w3.org/2000/svg" width="48" height="48" fill="none"><rect width="48" height="48" fill="#25D366" rx="24"/><path fill="#FAFAFC" d="m0 48 3.391-12.331A23.7 23.7 0 0 1 .653 19.202a23.78 23.78 0 0 1 8.8-14.208A23.97 23.97 0 0 1 25.461.04 23.95 23.95 0 0 1 40.8 6.772a23.75 23.75 0 0 1 7.123 15.11 23.72 23.72 0 0 1-4.599 16.052 23.9 23.9 0 0 1-14.057 9.094 24 24 0 0 1-16.599-2.337M5.74 42.353l7.522-1.97a19.95 19.95 0 0 0 14.005 2.938 19.9 19.9 0 0 0 12.356-7.187 19.7 19.7 0 0 0 4.3-13.585 19.74 19.74 0 0 0-5.988-12.936 19.92 19.92 0 0 0-13.168-5.58 19.93 19.93 0 0 0-13.52 4.673 19.75 19.75 0 0 0-6.86 12.5 19.7 19.7 0 0 0 3.36 13.846m12.272-16.678c.264.657 0 1.313-1.452 2.915-.792.788-.528 1.05.87 3.02 1.4 1.97 3.696 3.809 5.807 4.794s1.98.92 2.864-.131c1.98-2.233 1.451-2.758 3.43-1.865l3.564 1.707c1.055.525 1.108.525 1.121 1.182.014.657-.224 2.364-.923 3.1-.7.735-3.3 3.256-7.918 1.575s-7.786-3.02-13.064-10.112c-5.279-7.091-.211-11.293.475-11.556s.924-.197 2.243-.17q.528 0 .924.656"/></svg>