<svg xmlns="http://www.w3.org/2000/svg" width="25" height="25" fill="none" viewBox="0 0 25 25"><path fill="currentColor" d="M12.56 18.758q.525 0 .888-.362.363-.363.362-.888 0-.524-.362-.887a1.2 1.2 0 0 0-.888-.363q-.525 0-.887.363a1.2 1.2 0 0 0-.363.887q0 .525.363.888.362.362.887.362m-.9-3.85h1.85q0-.825.188-1.3.187-.474 1.062-1.3a7.5 7.5 0 0 0 1.025-1.237q.375-.588.375-1.413 0-1.4-1.025-2.15t-2.425-.75q-1.425 0-2.312.75-.888.75-1.238 1.8l1.65.65q.126-.45.563-.975.438-.525 1.337-.525.801 0 1.2.438.4.437.4.962 0 .5-.3.938t-.75.812q-1.1.975-1.35 1.475t-.25 1.825m.95 7.85a9.7 9.7 0 0 1-3.9-.787 10.1 10.1 0 0 1-3.175-2.138q-1.35-1.35-2.137-3.175a9.7 9.7 0 0 1-.788-3.9q0-2.074.788-3.9a10.1 10.1 0 0 1 2.137-3.175q1.35-1.35 3.175-2.137a9.7 9.7 0 0 1 3.9-.788q2.076 0 3.9.788a10.1 10.1 0 0 1 3.175 2.137q1.35 1.35 2.138 3.175a9.7 9.7 0 0 1 .787 3.9 9.7 9.7 0 0 1-.787 3.9 10.1 10.1 0 0 1-2.138 3.175 10.1 10.1 0 0 1-3.175 2.138 9.7 9.7 0 0 1-3.9.787m0-2q3.35 0 5.675-2.325 2.325-2.324 2.325-5.675t-2.325-5.675-5.675-2.325-5.675 2.325-2.325 5.675 2.325 5.675 5.675 2.325"/></svg>