<svg width="48" height="48" viewBox="0 0 48 48" fill="none" xmlns="http://www.w3.org/2000/svg">
<path d="M23.875 0C17.5207 0.0330957 11.4389 2.5848 6.96328 7.09553C2.48764 11.6063 -0.0164664 17.7078 8.14959e-05 24.0622C0.0166294 30.4165 2.55249 36.505 7.05155 40.9923C11.5506 45.4797 17.6456 47.9997 24 47.9997C30.3544 47.9997 36.4494 45.4797 40.9485 40.9923C45.4475 36.505 47.9834 30.4165 47.9999 24.0622C48.0165 17.7078 45.5124 11.6063 41.0367 7.09553C36.5611 2.5848 30.4793 0.0330957 24.125 0M17.25 26.875C15.5 28 14.5 27.875 13 27.5C11.5 27.125 10.375 26.75 8.875 26.25C7.375 25.75 6.875 24.625 9.5 23.625C23.4167 17.5417 31.5 14.1667 33.75 13.5C36.125 12.75 36.75 13.75 36.5 15.625C35.9167 20.625 34.9167 26.9167 33.5 34.5C33.125 36.625 32.125 38.375 29 36.25L21.25 31C20.0833 30.1667 19.875 29.3333 20.625 28.5C22.25 26.625 25.125 24.375 29 20.375C29.4167 19.9583 29.5417 19.625 29.375 19.375C29.2083 19.125 28.875 19.1667 28.375 19.5" fill="url(#paint0_linear_5174_28585)"/>
<defs>
<linearGradient id="paint0_linear_5174_28585" x1="0" y1="0" x2="0" y2="47.9997" gradientUnits="userSpaceOnUse">
<stop stop-color="#2AABEE"/>
<stop offset="1" stop-color="#229ED9"/>
</linearGradient>
</defs>
</svg>
