<svg xmlns="http://www.w3.org/2000/svg" width="48" height="48" fill="none">
  <rect width="48" height="48" fill="#25D366" rx="24"/>
  <path fill="#FAFAFC" d="M0 48L3.39141 35.669C0.511611 30.6891 -0.46102 24.8398 0.653167 19.2015C1.76735 13.5632 4.89308 8.51678 9.45301 4.99443C14.0129 1.47208 19.699 -0.288269 25.4609 0.0385356C31.2228 0.36534 36.6713 2.75722 40.8 6.77237C44.9287 10.7875 47.4587 16.1547 47.9226 21.8825C48.3866 27.6103 46.7531 33.3118 43.324 37.9339C39.8949 42.5559 34.9018 45.7863 29.2669 47.0283C23.6321 48.2702 17.7362 47.4399 12.6683 44.6907M5.74032 42.3532L13.2621 40.3834C17.4016 43.0596 22.3938 44.107 27.2666 43.3215C32.1394 42.5361 36.5441 39.974 39.623 36.1343C42.7019 32.2945 44.2346 27.4519 43.9227 22.5493C43.6107 17.6467 41.4765 13.0352 37.9355 9.61252C34.3945 6.18989 29.7002 4.20119 24.7668 4.03365C19.8333 3.86612 15.0137 5.53174 11.2465 8.7062C7.47933 11.8807 5.03415 16.3367 4.3871 21.2067C3.74004 26.0767 4.93744 31.0121 7.74613 35.0518M20.0185 18.374C20.2825 19.0306 20.0185 19.6872 18.567 21.2893C17.7752 22.0773 18.0391 22.3399 19.4379 24.3097C20.8367 26.2795 23.1328 28.118 25.2442 29.1029C27.3556 30.0878 27.2236 30.0222 28.1078 28.9716C30.0872 26.7392 29.5593 26.2139 31.5388 27.1069L35.1017 28.814C36.1574 29.3393 36.2102 29.3393 36.2234 29.9959C36.2366 30.6525 35.999 32.3597 35.2997 33.0951C34.6003 33.8305 32.0006 36.3518 27.382 34.6709C22.7633 32.99 19.5963 31.6506 14.3178 24.5592C9.03935 17.4679 14.1067 13.2656 14.7929 13.003C15.4791 12.7404 15.7166 12.806 17.0362 12.8323C17.3881 12.8323 17.696 13.0512 17.9599 13.4889"/>
</svg>