<svg width="48" height="48" viewBox="0 0 48 48" fill="none" xmlns="http://www.w3.org/2000/svg">
<g clip-path="url(#clip0_5174_13309)">
<path d="M24.0111 0.363647C14.1416 0.363647 11.2551 0.373829 10.694 0.420375C8.66865 0.588738 7.40832 0.907647 6.03527 1.59128C4.97712 2.11674 4.1426 2.72583 3.31899 3.57965C1.81904 5.13674 0.909972 7.05237 0.580891 9.32947C0.420896 10.4349 0.374352 10.6604 0.364897 16.3069C0.361261 18.1891 0.364897 20.6662 0.364897 23.9887C0.364897 33.8506 0.375806 36.7342 0.423077 37.2942C0.586709 39.2651 0.89579 40.5051 1.55032 41.8615C2.80119 44.4578 5.19021 46.4069 8.00467 47.1342C8.97918 47.3851 10.0555 47.5233 11.4373 47.5887C12.0227 47.6142 17.9898 47.6324 23.9605 47.6324C29.9313 47.6324 35.902 47.6251 36.4729 47.596C38.0728 47.5207 39.0019 47.396 40.0291 47.1306C42.8618 46.3996 45.2072 44.4796 46.4835 41.8469C47.1253 40.5233 47.4507 39.236 47.598 37.368C47.63 36.9607 47.6435 30.4673 47.6435 23.9826C47.6435 17.4967 47.6289 11.0153 47.5969 10.608C47.4478 8.70983 47.1224 7.43347 46.4599 6.08437C45.9162 4.98001 45.3126 4.15528 44.4363 3.31201C42.8723 1.81819 40.9597 0.909102 38.6805 0.580375C37.5761 0.420738 37.3561 0.373466 31.7054 0.363647H24.0111Z" fill="url(#paint0_radial_5174_13309)"/>
<path d="M24.0111 0.363647C14.1416 0.363647 11.2551 0.373829 10.694 0.420375C8.66865 0.588738 7.40832 0.907647 6.03527 1.59128C4.97712 2.11674 4.1426 2.72583 3.31899 3.57965C1.81904 5.13674 0.909972 7.05237 0.580891 9.32947C0.420896 10.4349 0.374352 10.6604 0.364897 16.3069C0.361261 18.1891 0.364897 20.6662 0.364897 23.9887C0.364897 33.8506 0.375806 36.7342 0.423077 37.2942C0.586709 39.2651 0.89579 40.5051 1.55032 41.8615C2.80119 44.4578 5.19021 46.4069 8.00467 47.1342C8.97918 47.3851 10.0555 47.5233 11.4373 47.5887C12.0227 47.6142 17.9898 47.6324 23.9605 47.6324C29.9313 47.6324 35.902 47.6251 36.4729 47.596C38.0728 47.5207 39.0019 47.396 40.0291 47.1306C42.8618 46.3996 45.2072 44.4796 46.4835 41.8469C47.1253 40.5233 47.4507 39.236 47.598 37.368C47.63 36.9607 47.6435 30.4673 47.6435 23.9826C47.6435 17.4967 47.6289 11.0153 47.5969 10.608C47.4478 8.70983 47.1224 7.43347 46.4599 6.08437C45.9162 4.98001 45.3126 4.15528 44.4363 3.31201C42.8723 1.81819 40.9597 0.909102 38.6805 0.580375C37.5761 0.420738 37.3561 0.373466 31.7054 0.363647H24.0111Z" fill="url(#paint1_radial_5174_13309)"/>
<path d="M24.0023 6.54547C19.2621 6.54547 18.6672 6.5662 16.8055 6.65093C14.9473 6.73602 13.679 7.0302 12.5692 7.46184C11.4213 7.90765 10.4475 8.50402 9.47733 9.47456C8.50645 10.4447 7.91011 11.4186 7.46285 12.5662C7.03013 13.6764 6.7356 14.9451 6.65196 16.8026C6.56869 18.6644 6.54688 19.2597 6.54688 24C6.54688 28.7404 6.56797 29.3335 6.65233 31.1953C6.73778 33.0535 7.03195 34.3218 7.46321 35.4317C7.90938 36.5797 8.50572 37.5535 9.47624 38.5237C10.446 39.4946 11.4198 40.0924 12.5671 40.5382C13.6776 40.9698 14.9463 41.264 16.804 41.3491C18.6658 41.4338 19.2603 41.4546 24.0002 41.4546C28.7407 41.4546 29.3338 41.4338 31.1956 41.3491C33.0537 41.264 34.3235 40.9698 35.434 40.5382C36.5816 40.0924 37.5539 39.4946 38.5237 38.5237C39.4946 37.5535 40.091 36.5797 40.5382 35.432C40.9673 34.3218 41.2618 33.0531 41.3491 31.1957C41.4327 29.3338 41.4545 28.7404 41.4545 24C41.4545 19.2597 41.4327 18.6647 41.3491 16.8029C41.2618 14.9447 40.9673 13.6764 40.5382 12.5666C40.091 11.4186 39.4946 10.4447 38.5237 9.47456C37.5528 8.50365 36.582 7.90729 35.4329 7.46184C34.3202 7.0302 33.0512 6.73602 31.193 6.65093C29.3313 6.5662 28.7386 6.54547 23.9969 6.54547H24.0023ZM22.4366 9.69093C22.9013 9.6902 23.4198 9.69093 24.0023 9.69093C28.6626 9.69093 29.2149 9.70765 31.0552 9.79129C32.757 9.86911 33.6806 10.1535 34.2959 10.3924C35.1104 10.7087 35.6911 11.0869 36.3016 11.6978C36.9125 12.3087 37.2907 12.8906 37.6078 13.7051C37.8467 14.3197 38.1314 15.2433 38.2088 16.9451C38.2925 18.7851 38.3106 19.3378 38.3106 23.996C38.3106 28.6542 38.2925 29.2069 38.2088 31.0469C38.131 32.7487 37.8467 33.6724 37.6078 34.2869C37.2914 35.1015 36.9125 35.6815 36.3016 36.292C35.6907 36.9029 35.1107 37.2811 34.2959 37.5975C33.6813 37.8375 32.757 38.1211 31.0552 38.1989C29.2153 38.2826 28.6626 38.3007 24.0023 38.3007C19.3418 38.3007 18.7894 38.2826 16.9495 38.1989C15.2477 38.1204 14.3241 37.836 13.7085 37.5971C12.894 37.2807 12.3122 36.9026 11.7013 36.2917C11.0904 35.6807 10.7122 35.1004 10.3951 34.2855C10.1562 33.6709 9.8715 32.7473 9.79405 31.0455C9.71042 29.2055 9.69369 28.6527 9.69369 23.9917C9.69369 19.3306 9.71042 18.7807 9.79405 16.9407C9.87187 15.2389 10.1562 14.3153 10.3951 13.7C10.7115 12.8855 11.0904 12.3037 11.7013 11.6927C12.3122 11.0818 12.894 10.7037 13.7085 10.3866C14.3237 10.1466 15.2477 9.86293 16.9495 9.78474C18.5596 9.71202 19.1836 9.6902 22.4366 9.68656V9.69093ZM33.3192 12.5891C32.1628 12.5891 31.2247 13.5262 31.2247 14.6829C31.2247 15.8393 32.1628 16.7775 33.3192 16.7775C34.4755 16.7775 35.4136 15.8393 35.4136 14.6829C35.4136 13.5266 34.4755 12.5884 33.3192 12.5884V12.5891ZM24.0023 15.0364C19.0523 15.0364 15.039 19.0498 15.039 24C15.039 28.9502 19.0523 32.9618 24.0023 32.9618C28.9524 32.9618 32.9643 28.9502 32.9643 24C32.9643 19.0498 28.9524 15.0364 24.0023 15.0364ZM24.0023 18.1818C27.2153 18.1818 29.8204 20.7866 29.8204 24C29.8204 27.2131 27.2153 29.8182 24.0023 29.8182C20.789 29.8182 18.1843 27.2131 18.1843 24C18.1843 20.7866 20.789 18.1818 24.0023 18.1818Z" fill="white"/>
</g>
<defs>
<radialGradient id="paint0_radial_5174_13309" cx="0" cy="0" r="1" gradientUnits="userSpaceOnUse" gradientTransform="translate(12.9221 51.2731) rotate(-90) scale(46.8468 43.5818)">
<stop stop-color="#FFDD55"/>
<stop offset="0.1" stop-color="#FFDD55"/>
<stop offset="0.5" stop-color="#FF543E"/>
<stop offset="1" stop-color="#C837AB"/>
</radialGradient>
<radialGradient id="paint1_radial_5174_13309" cx="0" cy="0" r="1" gradientUnits="userSpaceOnUse" gradientTransform="translate(-7.5564 3.76881) rotate(78.678) scale(20.9409 86.3386)">
<stop stop-color="#3771C8"/>
<stop offset="0.128" stop-color="#3771C8"/>
<stop offset="1" stop-color="#6600FF" stop-opacity="0"/>
</radialGradient>
<clipPath id="clip0_5174_13309">
<rect width="48" height="48" fill="white"/>
</clipPath>
</defs>
</svg>
