<svg xmlns="http://www.w3.org/2000/svg" width="48" height="48" fill="none"><rect width="45" height="45" x="1.5" y="1.5" stroke="currentColor" stroke-width="3" rx="22.5"/><path fill="currentColor" d="M19.378 27.728v1.936h-6.432v-1.936h2.208v-7.392q-.128.192-.432.432-.288.225-.672.448a5 5 0 0 1-.768.352 2 2 0 0 1-.704.144v-1.984q.432 0 .88-.224t.832-.512.608-.528l.256-.272h2.192v9.536zm9.34-1.424q0 1.056-.576 1.84a3.8 3.8 0 0 1-1.504 1.232 4.9 4.9 0 0 1-2.064.432 4.65 4.65 0 0 1-2.08-.464 3.9 3.9 0 0 1-1.488-1.264 3.27 3.27 0 0 1-.544-1.856q0-.64.272-1.152.272-.527.672-.896.416-.384.832-.592a3 3 0 0 1-.72-.512 2.5 2.5 0 0 1-.512-.736 2.1 2.1 0 0 1-.192-.88q0-.752.336-1.344t.896-.992q.56-.416 1.216-.608.672-.208 1.328-.208.64 0 1.312.208.672.192 1.232.592t.896.992q.352.576.352 1.344 0 .448-.208.88a2.6 2.6 0 0 1-1.264 1.264q.464.24.88.624t.672.912.256 1.184m-2.176-.128q0-.416-.16-.72a1.4 1.4 0 0 0-.448-.528 2 2 0 0 0-.64-.336 2.4 2.4 0 0 0-.72-.112q-.512 0-.96.208a1.8 1.8 0 0 0-.704.592 1.5 1.5 0 0 0-.272.896q0 .383.16.704.176.305.448.528.288.225.624.352.352.112.72.112.511 0 .96-.224t.72-.608a1.46 1.46 0 0 0 .272-.864M22.99 21.52q0 .432.24.736t.608.464q.383.144.752.144.384 0 .736-.16.368-.16.608-.448.256-.304.256-.752 0-.4-.224-.688a1.5 1.5 0 0 0-.592-.448 1.9 1.9 0 0 0-.8-.16q-.416 0-.784.16a1.4 1.4 0 0 0-.592.464 1.14 1.14 0 0 0-.208.688m12.432 1.6v1.728h-1.648v1.808h-1.936v-1.808H30.19V23.12h1.648v-1.808h1.936v1.808z"/></svg>