<svg xmlns="http://www.w3.org/2000/svg" width="48" height="48" fill="none"><rect width="46" height="46" x="1" y="1" stroke="currentColor" stroke-width="2" rx="23"/><path fill="currentColor" d="m24 25.4-4.9 4.9a.95.95 0 0 1-.7.275.95.95 0 0 1-.7-.275.95.95 0 0 1-.275-.7q0-.426.275-.7l4.9-4.9-4.9-4.9a.95.95 0 0 1-.275-.7q0-.426.275-.7a.95.95 0 0 1 .7-.275q.425 0 .7.275l4.9 4.9 4.9-4.9a.95.95 0 0 1 .7-.275q.424 0 .7.275a.95.95 0 0 1 .275.7.95.95 0 0 1-.275.7L25.4 24l4.9 4.9a.95.95 0 0 1 .275.7.95.95 0 0 1-.275.7.95.95 0 0 1-.7.275.95.95 0 0 1-.7-.275z"/></svg>